<svg xmlns="http://www.w3.org/2000/svg" xmlns:xlink="http://www.w3.org/1999/xlink" width="800" zoomAndPan="magnify" viewBox="0 0 600 599.999999" height="800" preserveAspectRatio="xMidYMid meet" version="1.0"><defs><filter x="0%" y="0%" width="100%" height="100%" id="666cefcd67"><feColorMatrix values="0 0 0 0 1 0 0 0 0 1 0 0 0 0 1 0 0 0 1 0" color-interpolation-filters="sRGB"/></filter><mask id="a0e6cefda2"><g filter="url(#666cefcd67)"><rect x="-60" width="720" fill="#000000" y="-60" height="719.999999" fill-opacity="0.1765"/></g></mask><clipPath id="bf958c8b8c"><path d="M 152 54 L 158 54 L 158 61 L 152 61 Z M 152 54 " clip-rule="nonzero"/></clipPath><clipPath id="5ec8b33a1a"><path d="M 0 204.730469 L 106.757812 1.570312 L 600.046875 260.785156 L 493.292969 463.945312 Z M 0 204.730469 " clip-rule="nonzero"/></clipPath><clipPath id="3a1707376c"><path d="M 0 204.730469 L 106.757812 1.570312 L 600.046875 260.785156 L 493.292969 463.945312 Z M 0 204.730469 " clip-rule="nonzero"/></clipPath><clipPath id="3a4de0147c"><path d="M 174 55 L 186 55 L 186 66 L 174 66 Z M 174 55 " clip-rule="nonzero"/></clipPath><clipPath id="95675acf36"><path d="M 0 204.730469 L 106.757812 1.570312 L 600.046875 260.785156 L 493.292969 463.945312 Z M 0 204.730469 " clip-rule="nonzero"/></clipPath><clipPath id="b77f3e3fb9"><path d="M 0 204.730469 L 106.757812 1.570312 L 600.046875 260.785156 L 493.292969 463.945312 Z M 0 204.730469 " clip-rule="nonzero"/></clipPath><clipPath id="02b3689f25"><path d="M 196 58 L 212 58 L 212 74 L 196 74 Z M 196 58 " clip-rule="nonzero"/></clipPath><clipPath id="82a99ca63f"><path d="M 0 204.730469 L 106.757812 1.570312 L 600.046875 260.785156 L 493.292969 463.945312 Z M 0 204.730469 " clip-rule="nonzero"/></clipPath><clipPath id="bb27220cdb"><path d="M 0 204.730469 L 106.757812 1.570312 L 600.046875 260.785156 L 493.292969 463.945312 Z M 0 204.730469 " clip-rule="nonzero"/></clipPath><clipPath id="ad3f4a1c64"><path d="M 218 66 L 237 66 L 237 85 L 218 85 Z M 218 66 " clip-rule="nonzero"/></clipPath><clipPath id="ac2cb30d51"><path d="M 0 204.730469 L 106.757812 1.570312 L 600.046875 260.785156 L 493.292969 463.945312 Z M 0 204.730469 " clip-rule="nonzero"/></clipPath><clipPath id="6c944df199"><path d="M 0 204.730469 L 106.757812 1.570312 L 600.046875 260.785156 L 493.292969 463.945312 Z M 0 204.730469 " clip-rule="nonzero"/></clipPath><clipPath id="909f2549c8"><path d="M 214.816406 79.09375 L 223.59375 62.386719 L 240.273438 71.152344 L 231.496094 87.855469 Z M 214.816406 79.09375 " clip-rule="nonzero"/></clipPath><clipPath id="6689db090a"><path d="M 214.816406 79.09375 L 223.355469 62.84375 L 240.035156 71.605469 L 231.496094 87.855469 Z M 214.816406 79.09375 " clip-rule="nonzero"/></clipPath><clipPath id="c26d6664ce"><path d="M 236 78 L 259 78 L 259 101 L 236 101 Z M 236 78 " clip-rule="nonzero"/></clipPath><clipPath id="3462cea17d"><path d="M 0 204.730469 L 106.757812 1.570312 L 600.046875 260.785156 L 493.292969 463.945312 Z M 0 204.730469 " clip-rule="nonzero"/></clipPath><clipPath id="dc7b55f88f"><path d="M 0 204.730469 L 106.757812 1.570312 L 600.046875 260.785156 L 493.292969 463.945312 Z M 0 204.730469 " clip-rule="nonzero"/></clipPath><clipPath id="c5ee56845f"><path d="M 251 96 L 276 96 L 276 121 L 251 121 Z M 251 96 " clip-rule="nonzero"/></clipPath><clipPath id="c26e74a23e"><path d="M 0 204.730469 L 106.757812 1.570312 L 600.046875 260.785156 L 493.292969 463.945312 Z M 0 204.730469 " clip-rule="nonzero"/></clipPath><clipPath id="bc943b12f7"><path d="M 0 204.730469 L 106.757812 1.570312 L 600.046875 260.785156 L 493.292969 463.945312 Z M 0 204.730469 " clip-rule="nonzero"/></clipPath><clipPath id="dec1a462f1"><path d="M 261 118 L 288 118 L 288 144 L 261 144 Z M 261 118 " clip-rule="nonzero"/></clipPath><clipPath id="77f02bdad7"><path d="M 0 204.730469 L 106.757812 1.570312 L 600.046875 260.785156 L 493.292969 463.945312 Z M 0 204.730469 " clip-rule="nonzero"/></clipPath><clipPath id="9ee747d6a5"><path d="M 0 204.730469 L 106.757812 1.570312 L 600.046875 260.785156 L 493.292969 463.945312 Z M 0 204.730469 " clip-rule="nonzero"/></clipPath><clipPath id="7db7915c32"><path d="M 267 141 L 295 141 L 295 169 L 267 169 Z M 267 141 " clip-rule="nonzero"/></clipPath><clipPath id="b06b6a48a0"><path d="M 0 204.730469 L 106.757812 1.570312 L 600.046875 260.785156 L 493.292969 463.945312 Z M 0 204.730469 " clip-rule="nonzero"/></clipPath><clipPath id="2826766347"><path d="M 0 204.730469 L 106.757812 1.570312 L 600.046875 260.785156 L 493.292969 463.945312 Z M 0 204.730469 " clip-rule="nonzero"/></clipPath><clipPath id="eeb18e66c3"><path d="M 269 165 L 299 165 L 299 195 L 269 195 Z M 269 165 " clip-rule="nonzero"/></clipPath><clipPath id="31f154993c"><path d="M 0 204.730469 L 106.757812 1.570312 L 600.046875 260.785156 L 493.292969 463.945312 Z M 0 204.730469 " clip-rule="nonzero"/></clipPath><clipPath id="c31134f0c9"><path d="M 0 204.730469 L 106.757812 1.570312 L 600.046875 260.785156 L 493.292969 463.945312 Z M 0 204.730469 " clip-rule="nonzero"/></clipPath><clipPath id="5995204f3d"><path d="M 270 189 L 300 189 L 300 220 L 270 220 Z M 270 189 " clip-rule="nonzero"/></clipPath><clipPath id="2682fab732"><path d="M 0 204.730469 L 106.757812 1.570312 L 600.046875 260.785156 L 493.292969 463.945312 Z M 0 204.730469 " clip-rule="nonzero"/></clipPath><clipPath id="6f1ff20298"><path d="M 0 204.730469 L 106.757812 1.570312 L 600.046875 260.785156 L 493.292969 463.945312 Z M 0 204.730469 " clip-rule="nonzero"/></clipPath><clipPath id="b9dad03eb2"><path d="M 270 214 L 301 214 L 301 245 L 270 245 Z M 270 214 " clip-rule="nonzero"/></clipPath><clipPath id="7aabcbaf10"><path d="M 0 204.730469 L 106.757812 1.570312 L 600.046875 260.785156 L 493.292969 463.945312 Z M 0 204.730469 " clip-rule="nonzero"/></clipPath><clipPath id="fc420a627c"><path d="M 0 204.730469 L 106.757812 1.570312 L 600.046875 260.785156 L 493.292969 463.945312 Z M 0 204.730469 " clip-rule="nonzero"/></clipPath><clipPath id="e9f7b2d5b0"><path d="M 270 239 L 302 239 L 302 270 L 270 270 Z M 270 239 " clip-rule="nonzero"/></clipPath><clipPath id="0194b6fa0e"><path d="M 0 204.730469 L 106.757812 1.570312 L 600.046875 260.785156 L 493.292969 463.945312 Z M 0 204.730469 " clip-rule="nonzero"/></clipPath><clipPath id="e0bc1366f6"><path d="M 0 204.730469 L 106.757812 1.570312 L 600.046875 260.785156 L 493.292969 463.945312 Z M 0 204.730469 " clip-rule="nonzero"/></clipPath><clipPath id="bc1e79eba2"><path d="M 272 264 L 303 264 L 303 295 L 272 295 Z M 272 264 " clip-rule="nonzero"/></clipPath><clipPath id="edfa07b614"><path d="M 0 204.730469 L 106.757812 1.570312 L 600.046875 260.785156 L 493.292969 463.945312 Z M 0 204.730469 " clip-rule="nonzero"/></clipPath><clipPath id="598712f1fe"><path d="M 0 204.730469 L 106.757812 1.570312 L 600.046875 260.785156 L 493.292969 463.945312 Z M 0 204.730469 " clip-rule="nonzero"/></clipPath><clipPath id="46a75e7be2"><path d="M 277 289 L 308 289 L 308 319 L 277 319 Z M 277 289 " clip-rule="nonzero"/></clipPath><clipPath id="f5afc38446"><path d="M 0 204.730469 L 106.757812 1.570312 L 600.046875 260.785156 L 493.292969 463.945312 Z M 0 204.730469 " clip-rule="nonzero"/></clipPath><clipPath id="4fd74e8f9d"><path d="M 0 204.730469 L 106.757812 1.570312 L 600.046875 260.785156 L 493.292969 463.945312 Z M 0 204.730469 " clip-rule="nonzero"/></clipPath><clipPath id="79b63d33b6"><path d="M 286 313 L 316 313 L 316 342 L 286 342 Z M 286 313 " clip-rule="nonzero"/></clipPath><clipPath id="e30d3c3378"><path d="M 0 204.730469 L 106.757812 1.570312 L 600.046875 260.785156 L 493.292969 463.945312 Z M 0 204.730469 " clip-rule="nonzero"/></clipPath><clipPath id="19f29b7f1e"><path d="M 0 204.730469 L 106.757812 1.570312 L 600.046875 260.785156 L 493.292969 463.945312 Z M 0 204.730469 " clip-rule="nonzero"/></clipPath><clipPath id="de45ed5dc8"><path d="M 300 334 L 329 334 L 329 363 L 300 363 Z M 300 334 " clip-rule="nonzero"/></clipPath><clipPath id="6791c1459d"><path d="M 0 204.730469 L 106.757812 1.570312 L 600.046875 260.785156 L 493.292969 463.945312 Z M 0 204.730469 " clip-rule="nonzero"/></clipPath><clipPath id="b45e2bdca1"><path d="M 0 204.730469 L 106.757812 1.570312 L 600.046875 260.785156 L 493.292969 463.945312 Z M 0 204.730469 " clip-rule="nonzero"/></clipPath><clipPath id="e83c9a8841"><path d="M 320 352 L 346 352 L 346 379 L 320 379 Z M 320 352 " clip-rule="nonzero"/></clipPath><clipPath id="33fc476fc7"><path d="M 0 204.730469 L 106.757812 1.570312 L 600.046875 260.785156 L 493.292969 463.945312 Z M 0 204.730469 " clip-rule="nonzero"/></clipPath><clipPath id="11060d3ac0"><path d="M 0 204.730469 L 106.757812 1.570312 L 600.046875 260.785156 L 493.292969 463.945312 Z M 0 204.730469 " clip-rule="nonzero"/></clipPath><clipPath id="49b104d6e4"><path d="M 342 365 L 367 365 L 367 390 L 342 390 Z M 342 365 " clip-rule="nonzero"/></clipPath><clipPath id="14318fc1bf"><path d="M 0 204.730469 L 106.757812 1.570312 L 600.046875 260.785156 L 493.292969 463.945312 Z M 0 204.730469 " clip-rule="nonzero"/></clipPath><clipPath id="1efb7a2009"><path d="M 0 204.730469 L 106.757812 1.570312 L 600.046875 260.785156 L 493.292969 463.945312 Z M 0 204.730469 " clip-rule="nonzero"/></clipPath><clipPath id="b77d558566"><path d="M 367 374 L 390 374 L 390 396 L 367 396 Z M 367 374 " clip-rule="nonzero"/></clipPath><clipPath id="973e832697"><path d="M 0 204.730469 L 106.757812 1.570312 L 600.046875 260.785156 L 493.292969 463.945312 Z M 0 204.730469 " clip-rule="nonzero"/></clipPath><clipPath id="79611dbf4e"><path d="M 0 204.730469 L 106.757812 1.570312 L 600.046875 260.785156 L 493.292969 463.945312 Z M 0 204.730469 " clip-rule="nonzero"/></clipPath><clipPath id="8eaa78992c"><path d="M 393 379 L 413 379 L 413 398 L 393 398 Z M 393 379 " clip-rule="nonzero"/></clipPath><clipPath id="ec92800efe"><path d="M 0 204.730469 L 106.757812 1.570312 L 600.046875 260.785156 L 493.292969 463.945312 Z M 0 204.730469 " clip-rule="nonzero"/></clipPath><clipPath id="b7b427ac5d"><path d="M 0 204.730469 L 106.757812 1.570312 L 600.046875 260.785156 L 493.292969 463.945312 Z M 0 204.730469 " clip-rule="nonzero"/></clipPath><clipPath id="576551d94d"><path d="M 420 382 L 436 382 L 436 397 L 420 397 Z M 420 382 " clip-rule="nonzero"/></clipPath><clipPath id="faa9592b74"><path d="M 0 204.730469 L 106.757812 1.570312 L 600.046875 260.785156 L 493.292969 463.945312 Z M 0 204.730469 " clip-rule="nonzero"/></clipPath><clipPath id="bf4ada4d89"><path d="M 0 204.730469 L 106.757812 1.570312 L 600.046875 260.785156 L 493.292969 463.945312 Z M 0 204.730469 " clip-rule="nonzero"/></clipPath><clipPath id="17d1cf69e2"><path d="M 447 382 L 459 382 L 459 394 L 447 394 Z M 447 382 " clip-rule="nonzero"/></clipPath><clipPath id="016ef2f8dc"><path d="M 0 204.730469 L 106.757812 1.570312 L 600.046875 260.785156 L 493.292969 463.945312 Z M 0 204.730469 " clip-rule="nonzero"/></clipPath><clipPath id="ea8f08a248"><path d="M 0 204.730469 L 106.757812 1.570312 L 600.046875 260.785156 L 493.292969 463.945312 Z M 0 204.730469 " clip-rule="nonzero"/></clipPath><clipPath id="1af2b2b814"><path d="M 474 381 L 481 381 L 481 388 L 474 388 Z M 474 381 " clip-rule="nonzero"/></clipPath><clipPath id="c85ba214f8"><path d="M 0 204.730469 L 106.757812 1.570312 L 600.046875 260.785156 L 493.292969 463.945312 Z M 0 204.730469 " clip-rule="nonzero"/></clipPath><clipPath id="701dbd3d95"><path d="M 0 204.730469 L 106.757812 1.570312 L 600.046875 260.785156 L 493.292969 463.945312 Z M 0 204.730469 " clip-rule="nonzero"/></clipPath><clipPath id="590556a178"><path d="M 365 192 L 370 192 L 370 196 L 365 196 Z M 365 192 " clip-rule="nonzero"/></clipPath><clipPath id="03008bd161"><path d="M 0 204.730469 L 106.757812 1.570312 L 600.046875 260.785156 L 493.292969 463.945312 Z M 0 204.730469 " clip-rule="nonzero"/></clipPath><clipPath id="0555d6c24c"><path d="M 0 204.730469 L 106.757812 1.570312 L 600.046875 260.785156 L 493.292969 463.945312 Z M 0 204.730469 " clip-rule="nonzero"/></clipPath><clipPath id="9352c4c2c8"><path d="M 377 192 L 384 192 L 384 199 L 377 199 Z M 377 192 " clip-rule="nonzero"/></clipPath><clipPath id="12732e0080"><path d="M 0 204.730469 L 106.757812 1.570312 L 600.046875 260.785156 L 493.292969 463.945312 Z M 0 204.730469 " clip-rule="nonzero"/></clipPath><clipPath id="0740198170"><path d="M 0 204.730469 L 106.757812 1.570312 L 600.046875 260.785156 L 493.292969 463.945312 Z M 0 204.730469 " clip-rule="nonzero"/></clipPath><clipPath id="963e9627d2"><path d="M 389 194 L 398 194 L 398 203 L 389 203 Z M 389 194 " clip-rule="nonzero"/></clipPath><clipPath id="c4817a26a8"><path d="M 0 204.730469 L 106.757812 1.570312 L 600.046875 260.785156 L 493.292969 463.945312 Z M 0 204.730469 " clip-rule="nonzero"/></clipPath><clipPath id="14628e2cb4"><path d="M 0 204.730469 L 106.757812 1.570312 L 600.046875 260.785156 L 493.292969 463.945312 Z M 0 204.730469 " clip-rule="nonzero"/></clipPath><clipPath id="8687a340eb"><path d="M 401 198 L 412 198 L 412 209 L 401 209 Z M 401 198 " clip-rule="nonzero"/></clipPath><clipPath id="26b6bc5c27"><path d="M 0 204.730469 L 106.757812 1.570312 L 600.046875 260.785156 L 493.292969 463.945312 Z M 0 204.730469 " clip-rule="nonzero"/></clipPath><clipPath id="3d3ae64288"><path d="M 0 204.730469 L 106.757812 1.570312 L 600.046875 260.785156 L 493.292969 463.945312 Z M 0 204.730469 " clip-rule="nonzero"/></clipPath><clipPath id="48b1c4f067"><path d="M 411 205 L 423 205 L 423 217 L 411 217 Z M 411 205 " clip-rule="nonzero"/></clipPath><clipPath id="d618133c7b"><path d="M 0 204.730469 L 106.757812 1.570312 L 600.046875 260.785156 L 493.292969 463.945312 Z M 0 204.730469 " clip-rule="nonzero"/></clipPath><clipPath id="bf9e2e4a39"><path d="M 0 204.730469 L 106.757812 1.570312 L 600.046875 260.785156 L 493.292969 463.945312 Z M 0 204.730469 " clip-rule="nonzero"/></clipPath><clipPath id="344bb450c7"><path d="M 419 215 L 433 215 L 433 228 L 419 228 Z M 419 215 " clip-rule="nonzero"/></clipPath><clipPath id="4a24cd4e07"><path d="M 0 204.730469 L 106.757812 1.570312 L 600.046875 260.785156 L 493.292969 463.945312 Z M 0 204.730469 " clip-rule="nonzero"/></clipPath><clipPath id="a6a333d219"><path d="M 0 204.730469 L 106.757812 1.570312 L 600.046875 260.785156 L 493.292969 463.945312 Z M 0 204.730469 " clip-rule="nonzero"/></clipPath><clipPath id="f9cc310984"><path d="M 424 226 L 439 226 L 439 241 L 424 241 Z M 424 226 " clip-rule="nonzero"/></clipPath><clipPath id="ba6962701e"><path d="M 0 204.730469 L 106.757812 1.570312 L 600.046875 260.785156 L 493.292969 463.945312 Z M 0 204.730469 " clip-rule="nonzero"/></clipPath><clipPath id="fd01a60a31"><path d="M 0 204.730469 L 106.757812 1.570312 L 600.046875 260.785156 L 493.292969 463.945312 Z M 0 204.730469 " clip-rule="nonzero"/></clipPath><clipPath id="5d194aabc4"><path d="M 427 239 L 443 239 L 443 254 L 427 254 Z M 427 239 " clip-rule="nonzero"/></clipPath><clipPath id="b2376401f8"><path d="M 0 204.730469 L 106.757812 1.570312 L 600.046875 260.785156 L 493.292969 463.945312 Z M 0 204.730469 " clip-rule="nonzero"/></clipPath><clipPath id="c6b39b57e8"><path d="M 0 204.730469 L 106.757812 1.570312 L 600.046875 260.785156 L 493.292969 463.945312 Z M 0 204.730469 " clip-rule="nonzero"/></clipPath><clipPath id="8d2306e800"><path d="M 429 252 L 445 252 L 445 268 L 429 268 Z M 429 252 " clip-rule="nonzero"/></clipPath><clipPath id="1e4f9faaf3"><path d="M 0 204.730469 L 106.757812 1.570312 L 600.046875 260.785156 L 493.292969 463.945312 Z M 0 204.730469 " clip-rule="nonzero"/></clipPath><clipPath id="99b508ccdc"><path d="M 0 204.730469 L 106.757812 1.570312 L 600.046875 260.785156 L 493.292969 463.945312 Z M 0 204.730469 " clip-rule="nonzero"/></clipPath><clipPath id="71c611cc2c"><path d="M 429 265 L 446 265 L 446 282 L 429 282 Z M 429 265 " clip-rule="nonzero"/></clipPath><clipPath id="cfc2751443"><path d="M 0 204.730469 L 106.757812 1.570312 L 600.046875 260.785156 L 493.292969 463.945312 Z M 0 204.730469 " clip-rule="nonzero"/></clipPath><clipPath id="775917d8a1"><path d="M 0 204.730469 L 106.757812 1.570312 L 600.046875 260.785156 L 493.292969 463.945312 Z M 0 204.730469 " clip-rule="nonzero"/></clipPath><clipPath id="622eb6d78e"><path d="M 429 278 L 446 278 L 446 295 L 429 295 Z M 429 278 " clip-rule="nonzero"/></clipPath><clipPath id="1a0182b681"><path d="M 0 204.730469 L 106.757812 1.570312 L 600.046875 260.785156 L 493.292969 463.945312 Z M 0 204.730469 " clip-rule="nonzero"/></clipPath><clipPath id="f6803da44f"><path d="M 0 204.730469 L 106.757812 1.570312 L 600.046875 260.785156 L 493.292969 463.945312 Z M 0 204.730469 " clip-rule="nonzero"/></clipPath><clipPath id="2c9b2ccd87"><path d="M 429 291 L 447 291 L 447 309 L 429 309 Z M 429 291 " clip-rule="nonzero"/></clipPath><clipPath id="0cb9b1c2c3"><path d="M 0 204.730469 L 106.757812 1.570312 L 600.046875 260.785156 L 493.292969 463.945312 Z M 0 204.730469 " clip-rule="nonzero"/></clipPath><clipPath id="f99801640d"><path d="M 0 204.730469 L 106.757812 1.570312 L 600.046875 260.785156 L 493.292969 463.945312 Z M 0 204.730469 " clip-rule="nonzero"/></clipPath><clipPath id="54c29e9ac8"><path d="M 430 305 L 448 305 L 448 322 L 430 322 Z M 430 305 " clip-rule="nonzero"/></clipPath><clipPath id="0b8dbdc17a"><path d="M 0 204.730469 L 106.757812 1.570312 L 600.046875 260.785156 L 493.292969 463.945312 Z M 0 204.730469 " clip-rule="nonzero"/></clipPath><clipPath id="1500fe1667"><path d="M 0 204.730469 L 106.757812 1.570312 L 600.046875 260.785156 L 493.292969 463.945312 Z M 0 204.730469 " clip-rule="nonzero"/></clipPath><clipPath id="23c1a74ab2"><path d="M 433 318 L 450 318 L 450 335 L 433 335 Z M 433 318 " clip-rule="nonzero"/></clipPath><clipPath id="d0164fd495"><path d="M 0 204.730469 L 106.757812 1.570312 L 600.046875 260.785156 L 493.292969 463.945312 Z M 0 204.730469 " clip-rule="nonzero"/></clipPath><clipPath id="76c6409a3d"><path d="M 0 204.730469 L 106.757812 1.570312 L 600.046875 260.785156 L 493.292969 463.945312 Z M 0 204.730469 " clip-rule="nonzero"/></clipPath><clipPath id="5b94125fe2"><path d="M 438 331 L 454 331 L 454 347 L 438 347 Z M 438 331 " clip-rule="nonzero"/></clipPath><clipPath id="dc092a206b"><path d="M 0 204.730469 L 106.757812 1.570312 L 600.046875 260.785156 L 493.292969 463.945312 Z M 0 204.730469 " clip-rule="nonzero"/></clipPath><clipPath id="aacd43d0ad"><path d="M 0 204.730469 L 106.757812 1.570312 L 600.046875 260.785156 L 493.292969 463.945312 Z M 0 204.730469 " clip-rule="nonzero"/></clipPath><clipPath id="2a4cfbfaef"><path d="M 445 342 L 461 342 L 461 358 L 445 358 Z M 445 342 " clip-rule="nonzero"/></clipPath><clipPath id="0334450b58"><path d="M 0 204.730469 L 106.757812 1.570312 L 600.046875 260.785156 L 493.292969 463.945312 Z M 0 204.730469 " clip-rule="nonzero"/></clipPath><clipPath id="1b0c027321"><path d="M 0 204.730469 L 106.757812 1.570312 L 600.046875 260.785156 L 493.292969 463.945312 Z M 0 204.730469 " clip-rule="nonzero"/></clipPath><clipPath id="ff8f93d8d9"><path d="M 456 352 L 471 352 L 471 367 L 456 367 Z M 456 352 " clip-rule="nonzero"/></clipPath><clipPath id="c8471ad225"><path d="M 0 204.730469 L 106.757812 1.570312 L 600.046875 260.785156 L 493.292969 463.945312 Z M 0 204.730469 " clip-rule="nonzero"/></clipPath><clipPath id="d79fe03e67"><path d="M 0 204.730469 L 106.757812 1.570312 L 600.046875 260.785156 L 493.292969 463.945312 Z M 0 204.730469 " clip-rule="nonzero"/></clipPath><clipPath id="47bcebe5db"><path d="M 468 359 L 482 359 L 482 373 L 468 373 Z M 468 359 " clip-rule="nonzero"/></clipPath><clipPath id="1063c4e7ae"><path d="M 0 204.730469 L 106.757812 1.570312 L 600.046875 260.785156 L 493.292969 463.945312 Z M 0 204.730469 " clip-rule="nonzero"/></clipPath><clipPath id="bac37c2bc3"><path d="M 0 204.730469 L 106.757812 1.570312 L 600.046875 260.785156 L 493.292969 463.945312 Z M 0 204.730469 " clip-rule="nonzero"/></clipPath><clipPath id="455feab345"><path d="M 481 364 L 494 364 L 494 376 L 481 376 Z M 481 364 " clip-rule="nonzero"/></clipPath><clipPath id="179a2d09bf"><path d="M 0 204.730469 L 106.757812 1.570312 L 600.046875 260.785156 L 493.292969 463.945312 Z M 0 204.730469 " clip-rule="nonzero"/></clipPath><clipPath id="eccd9bc602"><path d="M 0 204.730469 L 106.757812 1.570312 L 600.046875 260.785156 L 493.292969 463.945312 Z M 0 204.730469 " clip-rule="nonzero"/></clipPath><clipPath id="8422389053"><path d="M 495 367 L 506 367 L 506 377 L 495 377 Z M 495 367 " clip-rule="nonzero"/></clipPath><clipPath id="e6d283194e"><path d="M 0 204.730469 L 106.757812 1.570312 L 600.046875 260.785156 L 493.292969 463.945312 Z M 0 204.730469 " clip-rule="nonzero"/></clipPath><clipPath id="b172d6e76c"><path d="M 0 204.730469 L 106.757812 1.570312 L 600.046875 260.785156 L 493.292969 463.945312 Z M 0 204.730469 " clip-rule="nonzero"/></clipPath><clipPath id="56414df74a"><path d="M 510 368 L 519 368 L 519 377 L 510 377 Z M 510 368 " clip-rule="nonzero"/></clipPath><clipPath id="8c5b19858c"><path d="M 0 204.730469 L 106.757812 1.570312 L 600.046875 260.785156 L 493.292969 463.945312 Z M 0 204.730469 " clip-rule="nonzero"/></clipPath><clipPath id="8ac776e756"><path d="M 0 204.730469 L 106.757812 1.570312 L 600.046875 260.785156 L 493.292969 463.945312 Z M 0 204.730469 " clip-rule="nonzero"/></clipPath><clipPath id="925fede9a5"><path d="M 524 368 L 531 368 L 531 375 L 524 375 Z M 524 368 " clip-rule="nonzero"/></clipPath><clipPath id="eda2ae0f04"><path d="M 0 204.730469 L 106.757812 1.570312 L 600.046875 260.785156 L 493.292969 463.945312 Z M 0 204.730469 " clip-rule="nonzero"/></clipPath><clipPath id="a22df09758"><path d="M 0 204.730469 L 106.757812 1.570312 L 600.046875 260.785156 L 493.292969 463.945312 Z M 0 204.730469 " clip-rule="nonzero"/></clipPath><clipPath id="81694ee48c"><path d="M 539 368 L 543 368 L 543 372 L 539 372 Z M 539 368 " clip-rule="nonzero"/></clipPath><clipPath id="0bce796524"><path d="M 0 204.730469 L 106.757812 1.570312 L 600.046875 260.785156 L 493.292969 463.945312 Z M 0 204.730469 " clip-rule="nonzero"/></clipPath><clipPath id="4194b732f9"><path d="M 0 204.730469 L 106.757812 1.570312 L 600.046875 260.785156 L 493.292969 463.945312 Z M 0 204.730469 " clip-rule="nonzero"/></clipPath><clipPath id="3fda6f9604"><path d="M 82 45 L 86 45 L 86 50 L 82 50 Z M 82 45 " clip-rule="nonzero"/></clipPath><clipPath id="9be7eee09c"><path d="M 0 204.730469 L 106.757812 1.570312 L 600.046875 260.785156 L 493.292969 463.945312 Z M 0 204.730469 " clip-rule="nonzero"/></clipPath><clipPath id="2646a59338"><path d="M 0 204.730469 L 106.757812 1.570312 L 600.046875 260.785156 L 493.292969 463.945312 Z M 0 204.730469 " clip-rule="nonzero"/></clipPath><clipPath id="aad20aafa4"><path d="M 94 46 L 101 46 L 101 52 L 94 52 Z M 94 46 " clip-rule="nonzero"/></clipPath><clipPath id="d91ef06e48"><path d="M 0 204.730469 L 106.757812 1.570312 L 600.046875 260.785156 L 493.292969 463.945312 Z M 0 204.730469 " clip-rule="nonzero"/></clipPath><clipPath id="cda354caab"><path d="M 0 204.730469 L 106.757812 1.570312 L 600.046875 260.785156 L 493.292969 463.945312 Z M 0 204.730469 " clip-rule="nonzero"/></clipPath><clipPath id="701726a016"><path d="M 106 48 L 115 48 L 115 56 L 106 56 Z M 106 48 " clip-rule="nonzero"/></clipPath><clipPath id="1a357c6b62"><path d="M 0 204.730469 L 106.757812 1.570312 L 600.046875 260.785156 L 493.292969 463.945312 Z M 0 204.730469 " clip-rule="nonzero"/></clipPath><clipPath id="86ddbe371e"><path d="M 0 204.730469 L 106.757812 1.570312 L 600.046875 260.785156 L 493.292969 463.945312 Z M 0 204.730469 " clip-rule="nonzero"/></clipPath><clipPath id="8cc78a1815"><path d="M 118 52 L 129 52 L 129 62 L 118 62 Z M 118 52 " clip-rule="nonzero"/></clipPath><clipPath id="26fe08d255"><path d="M 0 204.730469 L 106.757812 1.570312 L 600.046875 260.785156 L 493.292969 463.945312 Z M 0 204.730469 " clip-rule="nonzero"/></clipPath><clipPath id="4811649525"><path d="M 0 204.730469 L 106.757812 1.570312 L 600.046875 260.785156 L 493.292969 463.945312 Z M 0 204.730469 " clip-rule="nonzero"/></clipPath><clipPath id="5917f655f3"><path d="M 128 58 L 140 58 L 140 71 L 128 71 Z M 128 58 " clip-rule="nonzero"/></clipPath><clipPath id="2acc9a75db"><path d="M 0 204.730469 L 106.757812 1.570312 L 600.046875 260.785156 L 493.292969 463.945312 Z M 0 204.730469 " clip-rule="nonzero"/></clipPath><clipPath id="bff8d1f5f0"><path d="M 0 204.730469 L 106.757812 1.570312 L 600.046875 260.785156 L 493.292969 463.945312 Z M 0 204.730469 " clip-rule="nonzero"/></clipPath><clipPath id="1195925dea"><path d="M 136 68 L 150 68 L 150 82 L 136 82 Z M 136 68 " clip-rule="nonzero"/></clipPath><clipPath id="93893500d9"><path d="M 0 204.730469 L 106.757812 1.570312 L 600.046875 260.785156 L 493.292969 463.945312 Z M 0 204.730469 " clip-rule="nonzero"/></clipPath><clipPath id="c8076f29ff"><path d="M 0 204.730469 L 106.757812 1.570312 L 600.046875 260.785156 L 493.292969 463.945312 Z M 0 204.730469 " clip-rule="nonzero"/></clipPath><clipPath id="9321db1c72"><path d="M 141 80 L 156 80 L 156 94 L 141 94 Z M 141 80 " clip-rule="nonzero"/></clipPath><clipPath id="5fe5cf74df"><path d="M 0 204.730469 L 106.757812 1.570312 L 600.046875 260.785156 L 493.292969 463.945312 Z M 0 204.730469 " clip-rule="nonzero"/></clipPath><clipPath id="c30a6a934a"><path d="M 0 204.730469 L 106.757812 1.570312 L 600.046875 260.785156 L 493.292969 463.945312 Z M 0 204.730469 " clip-rule="nonzero"/></clipPath><clipPath id="2ab81c6b3d"><path d="M 144 92 L 160 92 L 160 108 L 144 108 Z M 144 92 " clip-rule="nonzero"/></clipPath><clipPath id="6451c4ae5b"><path d="M 0 204.730469 L 106.757812 1.570312 L 600.046875 260.785156 L 493.292969 463.945312 Z M 0 204.730469 " clip-rule="nonzero"/></clipPath><clipPath id="17b98e5e32"><path d="M 0 204.730469 L 106.757812 1.570312 L 600.046875 260.785156 L 493.292969 463.945312 Z M 0 204.730469 " clip-rule="nonzero"/></clipPath><clipPath id="3b3cd4c307"><path d="M 146 105 L 162 105 L 162 121 L 146 121 Z M 146 105 " clip-rule="nonzero"/></clipPath><clipPath id="0451108849"><path d="M 0 204.730469 L 106.757812 1.570312 L 600.046875 260.785156 L 493.292969 463.945312 Z M 0 204.730469 " clip-rule="nonzero"/></clipPath><clipPath id="ddc160a126"><path d="M 0 204.730469 L 106.757812 1.570312 L 600.046875 260.785156 L 493.292969 463.945312 Z M 0 204.730469 " clip-rule="nonzero"/></clipPath><clipPath id="6fe065563e"><path d="M 146 118 L 163 118 L 163 135 L 146 135 Z M 146 118 " clip-rule="nonzero"/></clipPath><clipPath id="45eefd04a1"><path d="M 0 204.730469 L 106.757812 1.570312 L 600.046875 260.785156 L 493.292969 463.945312 Z M 0 204.730469 " clip-rule="nonzero"/></clipPath><clipPath id="9f5c7ab019"><path d="M 0 204.730469 L 106.757812 1.570312 L 600.046875 260.785156 L 493.292969 463.945312 Z M 0 204.730469 " clip-rule="nonzero"/></clipPath><clipPath id="c5cf8c4e4a"><path d="M 146 131 L 163 131 L 163 149 L 146 149 Z M 146 131 " clip-rule="nonzero"/></clipPath><clipPath id="fd7637723b"><path d="M 0 204.730469 L 106.757812 1.570312 L 600.046875 260.785156 L 493.292969 463.945312 Z M 0 204.730469 " clip-rule="nonzero"/></clipPath><clipPath id="742b6b66e0"><path d="M 0 204.730469 L 106.757812 1.570312 L 600.046875 260.785156 L 493.292969 463.945312 Z M 0 204.730469 " clip-rule="nonzero"/></clipPath><clipPath id="b1b70f67cc"><path d="M 146 145 L 163 145 L 163 162 L 146 162 Z M 146 145 " clip-rule="nonzero"/></clipPath><clipPath id="dc5cf5182e"><path d="M 0 204.730469 L 106.757812 1.570312 L 600.046875 260.785156 L 493.292969 463.945312 Z M 0 204.730469 " clip-rule="nonzero"/></clipPath><clipPath id="ec036a26ab"><path d="M 0 204.730469 L 106.757812 1.570312 L 600.046875 260.785156 L 493.292969 463.945312 Z M 0 204.730469 " clip-rule="nonzero"/></clipPath><clipPath id="820be52393"><path d="M 147 158 L 164 158 L 164 175 L 147 175 Z M 147 158 " clip-rule="nonzero"/></clipPath><clipPath id="f8b68602dc"><path d="M 0 204.730469 L 106.757812 1.570312 L 600.046875 260.785156 L 493.292969 463.945312 Z M 0 204.730469 " clip-rule="nonzero"/></clipPath><clipPath id="50be2d01b5"><path d="M 0 204.730469 L 106.757812 1.570312 L 600.046875 260.785156 L 493.292969 463.945312 Z M 0 204.730469 " clip-rule="nonzero"/></clipPath><clipPath id="bf98be09dd"><path d="M 150 171 L 167 171 L 167 188 L 150 188 Z M 150 171 " clip-rule="nonzero"/></clipPath><clipPath id="4a5aea332c"><path d="M 0 204.730469 L 106.757812 1.570312 L 600.046875 260.785156 L 493.292969 463.945312 Z M 0 204.730469 " clip-rule="nonzero"/></clipPath><clipPath id="8ffbaec88a"><path d="M 0 204.730469 L 106.757812 1.570312 L 600.046875 260.785156 L 493.292969 463.945312 Z M 0 204.730469 " clip-rule="nonzero"/></clipPath><clipPath id="0b63308c07"><path d="M 155 184 L 171 184 L 171 201 L 155 201 Z M 155 184 " clip-rule="nonzero"/></clipPath><clipPath id="d1bc2a3398"><path d="M 0 204.730469 L 106.757812 1.570312 L 600.046875 260.785156 L 493.292969 463.945312 Z M 0 204.730469 " clip-rule="nonzero"/></clipPath><clipPath id="4c12597b04"><path d="M 0 204.730469 L 106.757812 1.570312 L 600.046875 260.785156 L 493.292969 463.945312 Z M 0 204.730469 " clip-rule="nonzero"/></clipPath><clipPath id="b592dc8b55"><path d="M 162 196 L 178 196 L 178 212 L 162 212 Z M 162 196 " clip-rule="nonzero"/></clipPath><clipPath id="9dd1c2186f"><path d="M 0 204.730469 L 106.757812 1.570312 L 600.046875 260.785156 L 493.292969 463.945312 Z M 0 204.730469 " clip-rule="nonzero"/></clipPath><clipPath id="4975727ca3"><path d="M 0 204.730469 L 106.757812 1.570312 L 600.046875 260.785156 L 493.292969 463.945312 Z M 0 204.730469 " clip-rule="nonzero"/></clipPath><clipPath id="3ee9795e60"><path d="M 173 205 L 187 205 L 187 220 L 173 220 Z M 173 205 " clip-rule="nonzero"/></clipPath><clipPath id="3392e0264b"><path d="M 0 204.730469 L 106.757812 1.570312 L 600.046875 260.785156 L 493.292969 463.945312 Z M 0 204.730469 " clip-rule="nonzero"/></clipPath><clipPath id="f346e3f03c"><path d="M 0 204.730469 L 106.757812 1.570312 L 600.046875 260.785156 L 493.292969 463.945312 Z M 0 204.730469 " clip-rule="nonzero"/></clipPath><clipPath id="085adc010b"><path d="M 185 212 L 199 212 L 199 226 L 185 226 Z M 185 212 " clip-rule="nonzero"/></clipPath><clipPath id="3a995887a1"><path d="M 0 204.730469 L 106.757812 1.570312 L 600.046875 260.785156 L 493.292969 463.945312 Z M 0 204.730469 " clip-rule="nonzero"/></clipPath><clipPath id="467e02d324"><path d="M 0 204.730469 L 106.757812 1.570312 L 600.046875 260.785156 L 493.292969 463.945312 Z M 0 204.730469 " clip-rule="nonzero"/></clipPath><clipPath id="c4abfe0d4a"><path d="M 198 217 L 211 217 L 211 230 L 198 230 Z M 198 217 " clip-rule="nonzero"/></clipPath><clipPath id="2a836e6590"><path d="M 0 204.730469 L 106.757812 1.570312 L 600.046875 260.785156 L 493.292969 463.945312 Z M 0 204.730469 " clip-rule="nonzero"/></clipPath><clipPath id="73f5c223e8"><path d="M 0 204.730469 L 106.757812 1.570312 L 600.046875 260.785156 L 493.292969 463.945312 Z M 0 204.730469 " clip-rule="nonzero"/></clipPath><clipPath id="541229b3a8"><path d="M 212 220 L 223 220 L 223 231 L 212 231 Z M 212 220 " clip-rule="nonzero"/></clipPath><clipPath id="996517c33b"><path d="M 0 204.730469 L 106.757812 1.570312 L 600.046875 260.785156 L 493.292969 463.945312 Z M 0 204.730469 " clip-rule="nonzero"/></clipPath><clipPath id="1d9c5f3327"><path d="M 0 204.730469 L 106.757812 1.570312 L 600.046875 260.785156 L 493.292969 463.945312 Z M 0 204.730469 " clip-rule="nonzero"/></clipPath><clipPath id="4b808377f8"><path d="M 227 221 L 236 221 L 236 230 L 227 230 Z M 227 221 " clip-rule="nonzero"/></clipPath><clipPath id="c697d4f3e0"><path d="M 0 204.730469 L 106.757812 1.570312 L 600.046875 260.785156 L 493.292969 463.945312 Z M 0 204.730469 " clip-rule="nonzero"/></clipPath><clipPath id="ba65ab2720"><path d="M 0 204.730469 L 106.757812 1.570312 L 600.046875 260.785156 L 493.292969 463.945312 Z M 0 204.730469 " clip-rule="nonzero"/></clipPath><clipPath id="d33a2bf821"><path d="M 241 222 L 248 222 L 248 228 L 241 228 Z M 241 222 " clip-rule="nonzero"/></clipPath><clipPath id="7f23638687"><path d="M 0 204.730469 L 106.757812 1.570312 L 600.046875 260.785156 L 493.292969 463.945312 Z M 0 204.730469 " clip-rule="nonzero"/></clipPath><clipPath id="864a3e7d7c"><path d="M 0 204.730469 L 106.757812 1.570312 L 600.046875 260.785156 L 493.292969 463.945312 Z M 0 204.730469 " clip-rule="nonzero"/></clipPath><clipPath id="539d5f6d53"><path d="M 256 221 L 260 221 L 260 225 L 256 225 Z M 256 221 " clip-rule="nonzero"/></clipPath><clipPath id="6cad5fcdab"><path d="M 0 204.730469 L 106.757812 1.570312 L 600.046875 260.785156 L 493.292969 463.945312 Z M 0 204.730469 " clip-rule="nonzero"/></clipPath><clipPath id="c4e7932ca0"><path d="M 0 204.730469 L 106.757812 1.570312 L 600.046875 260.785156 L 493.292969 463.945312 Z M 0 204.730469 " clip-rule="nonzero"/></clipPath><clipPath id="ab8d58eb13"><rect x="0" width="600" y="0" height="465"/></clipPath></defs><g mask="url(#a0e6cefda2)"><g transform="matrix(1, 0, 0, 1, 0, 76)"><g clip-path="url(#ab8d58eb13)"><g clip-path="url(#bf958c8b8c)"><g clip-path="url(#5ec8b33a1a)"><g clip-path="url(#3a1707376c)"><path fill="#45f63f" d="M 157.609375 58.867188 C 156.847656 60.3125 155.070312 60.867188 153.628906 60.109375 C 152.1875 59.351562 151.632812 57.570312 152.390625 56.128906 C 153.148438 54.683594 154.929688 54.128906 156.371094 54.886719 C 157.8125 55.644531 158.367188 57.425781 157.609375 58.867188 " fill-opacity="1" fill-rule="nonzero"/></g></g></g><g clip-path="url(#3a4de0147c)"><g clip-path="url(#95675acf36)"><g clip-path="url(#b77f3e3fb9)"><path fill="#45f63f" d="M 184.488281 63.011719 C 183.113281 65.632812 179.878906 66.640625 177.261719 65.265625 C 174.644531 63.890625 173.640625 60.65625 175.019531 58.035156 C 176.394531 55.414062 179.628906 54.40625 182.246094 55.78125 C 184.863281 57.152344 185.867188 60.394531 184.488281 63.011719 " fill-opacity="1" fill-rule="nonzero"/></g></g></g><g clip-path="url(#02b3689f25)"><g clip-path="url(#82a99ca63f)"><g clip-path="url(#bb27220cdb)"><path fill="#45f63f" d="M 210.632812 69.34375 C 208.730469 72.960938 204.257812 74.355469 200.648438 72.457031 C 197.035156 70.558594 195.648438 66.085938 197.546875 62.46875 C 199.449219 58.847656 203.917969 57.453125 207.535156 59.351562 C 211.144531 61.25 212.535156 65.722656 210.632812 69.34375 " fill-opacity="1" fill-rule="nonzero"/></g></g></g><g clip-path="url(#ad3f4a1c64)"><g clip-path="url(#ac2cb30d51)"><g clip-path="url(#6c944df199)"><g clip-path="url(#909f2549c8)"><g clip-path="url(#6689db090a)"><path fill="#45f63f" d="M 235.277344 79.433594 C 232.925781 83.902344 227.402344 85.625 222.9375 83.28125 C 218.476562 80.933594 216.761719 75.410156 219.109375 70.9375 C 221.460938 66.46875 226.984375 64.746094 231.445312 67.089844 C 235.910156 69.4375 237.625 74.960938 235.277344 79.433594 " fill-opacity="1" fill-rule="nonzero"/></g></g></g></g></g><g clip-path="url(#c26d6664ce)"><g clip-path="url(#3462cea17d)"><g clip-path="url(#dc7b55f88f)"><path fill="#45f63f" d="M 256.894531 94.476562 C 254.167969 99.671875 247.75 101.671875 242.5625 98.949219 C 237.378906 96.222656 235.386719 89.804688 238.117188 84.609375 C 240.84375 79.414062 247.261719 77.414062 252.449219 80.136719 C 257.632812 82.863281 259.625 89.285156 256.894531 94.476562 " fill-opacity="1" fill-rule="nonzero"/></g></g></g><g clip-path="url(#c5ee56845f)"><g clip-path="url(#c26e74a23e)"><g clip-path="url(#bc943b12f7)"><path fill="#45f63f" d="M 274.039062 114.0625 C 270.988281 119.863281 263.824219 122.097656 258.03125 119.054688 C 252.238281 116.011719 250.011719 108.839844 253.058594 103.039062 C 256.109375 97.238281 263.277344 95 269.070312 98.042969 C 274.863281 101.089844 277.085938 108.257812 274.039062 114.0625 " fill-opacity="1" fill-rule="nonzero"/></g></g></g><g clip-path="url(#dec1a462f1)"><g clip-path="url(#77f02bdad7)"><g clip-path="url(#9ee747d6a5)"><path fill="#45f63f" d="M 285.867188 136.914062 C 282.554688 143.214844 274.769531 145.644531 268.476562 142.339844 C 262.183594 139.03125 259.765625 131.238281 263.074219 124.9375 C 266.386719 118.636719 274.175781 116.207031 280.46875 119.511719 C 286.761719 122.820312 289.179688 130.609375 285.867188 136.914062 " fill-opacity="1" fill-rule="nonzero"/></g></g></g><g clip-path="url(#7db7915c32)"><g clip-path="url(#b06b6a48a0)"><g clip-path="url(#2826766347)"><path fill="#45f63f" d="M 292.960938 161.402344 C 289.4375 168.105469 281.152344 170.6875 274.457031 167.171875 C 267.765625 163.652344 265.191406 155.367188 268.714844 148.660156 C 272.238281 141.957031 280.523438 139.371094 287.21875 142.890625 C 293.914062 146.40625 296.484375 154.695312 292.960938 161.402344 " fill-opacity="1" fill-rule="nonzero"/></g></g></g><g clip-path="url(#eeb18e66c3)"><g clip-path="url(#31f154993c)"><g clip-path="url(#c31134f0c9)"><path fill="#45f63f" d="M 296.636719 186.441406 C 292.957031 193.445312 284.304688 196.148438 277.308594 192.46875 C 270.3125 188.796875 267.628906 180.136719 271.308594 173.132812 C 274.988281 166.125 283.644531 163.425781 290.636719 167.101562 C 297.632812 170.777344 300.320312 179.433594 296.636719 186.441406 " fill-opacity="1" fill-rule="nonzero"/></g></g></g><g clip-path="url(#5995204f3d)"><g clip-path="url(#2682fab732)"><g clip-path="url(#6f1ff20298)"><path fill="#45f63f" d="M 298.21875 211.582031 C 294.421875 218.804688 285.5 221.589844 278.289062 217.800781 C 271.074219 214.007812 268.308594 205.082031 272.101562 197.859375 C 275.898438 190.636719 284.820312 187.855469 292.03125 191.644531 C 299.242188 195.433594 302.011719 204.359375 298.21875 211.582031 " fill-opacity="1" fill-rule="nonzero"/></g></g></g><g clip-path="url(#b9dad03eb2)"><g clip-path="url(#7aabcbaf10)"><g clip-path="url(#fc420a627c)"><path fill="#45f63f" d="M 298.75 236.664062 C 294.890625 244.011719 285.8125 246.84375 278.476562 242.992188 C 271.140625 239.136719 268.328125 230.054688 272.1875 222.707031 C 276.046875 215.359375 285.121094 212.53125 292.457031 216.382812 C 299.792969 220.238281 302.609375 229.316406 298.75 236.664062 " fill-opacity="1" fill-rule="nonzero"/></g></g></g><g clip-path="url(#e9f7b2d5b0)"><g clip-path="url(#0194b6fa0e)"><g clip-path="url(#e0bc1366f6)"><path fill="#45f63f" d="M 299.300781 261.675781 C 295.414062 269.070312 286.28125 271.917969 278.898438 268.039062 C 271.515625 264.15625 268.679688 255.019531 272.5625 247.625 C 276.449219 240.226562 285.585938 237.378906 292.96875 241.261719 C 300.351562 245.140625 303.1875 254.277344 299.300781 261.675781 " fill-opacity="1" fill-rule="nonzero"/></g></g></g><g clip-path="url(#bc1e79eba2)"><g clip-path="url(#edfa07b614)"><g clip-path="url(#598712f1fe)"><path fill="#45f63f" d="M 301.230469 286.511719 C 297.367188 293.863281 288.285156 296.699219 280.945312 292.839844 C 273.601562 288.984375 270.78125 279.894531 274.648438 272.542969 C 278.511719 265.1875 287.59375 262.355469 294.9375 266.210938 C 302.277344 270.070312 305.097656 279.15625 301.230469 286.511719 " fill-opacity="1" fill-rule="nonzero"/></g></g></g><g clip-path="url(#46a75e7be2)"><g clip-path="url(#f5afc38446)"><g clip-path="url(#4fd74e8f9d)"><path fill="#45f63f" d="M 305.660156 310.902344 C 301.859375 318.136719 292.925781 320.925781 285.703125 317.128906 C 278.484375 313.335938 275.710938 304.394531 279.511719 297.164062 C 283.3125 289.933594 292.246094 287.144531 299.464844 290.9375 C 306.6875 294.734375 309.460938 303.671875 305.660156 310.902344 " fill-opacity="1" fill-rule="nonzero"/></g></g></g><g clip-path="url(#79b63d33b6)"><g clip-path="url(#e30d3c3378)"><g clip-path="url(#19f29b7f1e)"><path fill="#45f63f" d="M 313.785156 334.125 C 310.097656 341.148438 301.425781 343.851562 294.414062 340.167969 C 287.402344 336.484375 284.710938 327.808594 288.402344 320.785156 C 292.089844 313.765625 300.765625 311.058594 307.773438 314.742188 C 314.785156 318.429688 317.476562 327.105469 313.785156 334.125 " fill-opacity="1" fill-rule="nonzero"/></g></g></g><g clip-path="url(#de45ed5dc8)"><g clip-path="url(#6791c1459d)"><g clip-path="url(#b45e2bdca1)"><path fill="#45f63f" d="M 326.738281 354.75 C 323.203125 361.472656 314.898438 364.0625 308.1875 360.535156 C 301.472656 357.007812 298.894531 348.699219 302.429688 341.976562 C 305.960938 335.253906 314.265625 332.664062 320.980469 336.191406 C 327.691406 339.71875 330.269531 348.027344 326.738281 354.75 " fill-opacity="1" fill-rule="nonzero"/></g></g></g><g clip-path="url(#e83c9a8841)"><g clip-path="url(#33fc476fc7)"><g clip-path="url(#11060d3ac0)"><path fill="#45f63f" d="M 344.429688 371.09375 C 341.109375 377.414062 333.296875 379.851562 326.984375 376.535156 C 320.671875 373.21875 318.25 365.402344 321.570312 359.082031 C 324.894531 352.757812 332.703125 350.324219 339.015625 353.640625 C 345.328125 356.957031 347.753906 364.769531 344.429688 371.09375 " fill-opacity="1" fill-rule="nonzero"/></g></g></g><g clip-path="url(#49b104d6e4)"><g clip-path="url(#14318fc1bf)"><g clip-path="url(#1efb7a2009)"><path fill="#45f63f" d="M 365.316406 382.648438 C 362.257812 388.472656 355.066406 390.71875 349.25 387.660156 C 343.4375 384.605469 341.203125 377.410156 344.265625 371.585938 C 347.324219 365.761719 354.515625 363.519531 360.332031 366.574219 C 366.144531 369.632812 368.378906 376.828125 365.316406 382.648438 " fill-opacity="1" fill-rule="nonzero"/></g></g></g><g clip-path="url(#b77d558566)"><g clip-path="url(#973e832697)"><g clip-path="url(#79611dbf4e)"><path fill="#45f63f" d="M 387.945312 389.652344 C 385.203125 394.867188 378.761719 396.878906 373.554688 394.140625 C 368.347656 391.40625 366.347656 384.957031 369.089844 379.742188 C 371.832031 374.527344 378.273438 372.515625 383.480469 375.253906 C 388.6875 377.988281 390.6875 384.433594 387.945312 389.652344 " fill-opacity="1" fill-rule="nonzero"/></g></g></g><g clip-path="url(#8eaa78992c)"><g clip-path="url(#ec92800efe)"><g clip-path="url(#b7b427ac5d)"><path fill="#45f63f" d="M 411.257812 392.816406 C 408.898438 397.304688 403.351562 399.035156 398.871094 396.679688 C 394.386719 394.324219 392.664062 388.773438 395.023438 384.28125 C 397.382812 379.792969 402.929688 378.0625 407.414062 380.417969 C 411.898438 382.773438 413.621094 388.324219 411.257812 392.816406 " fill-opacity="1" fill-rule="nonzero"/></g></g></g><g clip-path="url(#576551d94d)"><g clip-path="url(#faa9592b74)"><g clip-path="url(#bf4ada4d89)"><path fill="#45f63f" d="M 434.632812 392.894531 C 432.722656 396.527344 428.230469 397.929688 424.597656 396.023438 C 420.96875 394.117188 419.574219 389.621094 421.484375 385.984375 C 423.394531 382.347656 427.890625 380.945312 431.519531 382.855469 C 435.148438 384.761719 436.542969 389.257812 434.632812 392.894531 " fill-opacity="1" fill-rule="nonzero"/></g></g></g><g clip-path="url(#17d1cf69e2)"><g clip-path="url(#016ef2f8dc)"><g clip-path="url(#ea8f08a248)"><path fill="#45f63f" d="M 457.71875 390.46875 C 456.335938 393.105469 453.082031 394.117188 450.453125 392.738281 C 447.820312 391.355469 446.8125 388.097656 448.195312 385.464844 C 449.578125 382.832031 452.832031 381.816406 455.464844 383.199219 C 458.09375 384.582031 459.101562 387.835938 457.71875 390.46875 " fill-opacity="1" fill-rule="nonzero"/></g></g></g><g clip-path="url(#1af2b2b814)"><g clip-path="url(#c85ba214f8)"><g clip-path="url(#701dbd3d95)"><path fill="#45f63f" d="M 480.292969 385.953125 C 479.53125 387.40625 477.738281 387.964844 476.292969 387.203125 C 474.839844 386.441406 474.285156 384.648438 475.046875 383.195312 C 475.808594 381.746094 477.601562 381.1875 479.050781 381.949219 C 480.5 382.707031 481.058594 384.503906 480.292969 385.953125 " fill-opacity="1" fill-rule="nonzero"/></g></g></g><g clip-path="url(#590556a178)"><g clip-path="url(#03008bd161)"><g clip-path="url(#0555d6c24c)"><path fill="#45f63f" d="M 368.929688 194.800781 C 368.523438 195.574219 367.566406 195.875 366.792969 195.46875 C 366.019531 195.0625 365.71875 194.101562 366.128906 193.328125 C 366.535156 192.550781 367.496094 192.253906 368.269531 192.660156 C 369.042969 193.066406 369.339844 194.023438 368.929688 194.800781 " fill-opacity="1" fill-rule="nonzero"/></g></g></g><g clip-path="url(#9352c4c2c8)"><g clip-path="url(#12732e0080)"><g clip-path="url(#0740198170)"><path fill="#45f63f" d="M 383.378906 197.027344 C 382.636719 198.433594 380.898438 198.976562 379.492188 198.238281 C 378.089844 197.5 377.546875 195.761719 378.289062 194.351562 C 379.027344 192.945312 380.765625 192.402344 382.171875 193.140625 C 383.574219 193.878906 384.117188 195.617188 383.378906 197.027344 " fill-opacity="1" fill-rule="nonzero"/></g></g></g><g clip-path="url(#963e9627d2)"><g clip-path="url(#c4817a26a8)"><g clip-path="url(#14628e2cb4)"><path fill="#45f63f" d="M 397.425781 200.425781 C 396.402344 202.371094 394 203.121094 392.058594 202.101562 C 390.117188 201.082031 389.375 198.675781 390.394531 196.734375 C 391.417969 194.789062 393.820312 194.042969 395.757812 195.0625 C 397.699219 196.082031 398.445312 198.480469 397.425781 200.425781 " fill-opacity="1" fill-rule="nonzero"/></g></g></g><g clip-path="url(#8687a340eb)"><g clip-path="url(#26b6bc5c27)"><g clip-path="url(#3d3ae64288)"><path fill="#45f63f" d="M 410.667969 205.851562 C 409.40625 208.253906 406.4375 209.179688 404.039062 207.917969 C 401.636719 206.65625 400.71875 203.6875 401.980469 201.285156 C 403.242188 198.886719 406.210938 197.957031 408.609375 199.21875 C 411.007812 200.476562 411.929688 203.449219 410.667969 205.851562 " fill-opacity="1" fill-rule="nonzero"/></g></g></g><g clip-path="url(#48b1c4f067)"><g clip-path="url(#d618133c7b)"><g clip-path="url(#bf9e2e4a39)"><path fill="#45f63f" d="M 422.285156 213.9375 C 420.816406 216.726562 417.367188 217.800781 414.582031 216.339844 C 411.796875 214.875 410.726562 211.421875 412.191406 208.632812 C 413.660156 205.839844 417.109375 204.765625 419.894531 206.230469 C 422.679688 207.691406 423.75 211.144531 422.285156 213.9375 " fill-opacity="1" fill-rule="nonzero"/></g></g></g><g clip-path="url(#344bb450c7)"><g clip-path="url(#4a24cd4e07)"><g clip-path="url(#a6a333d219)"><path fill="#45f63f" d="M 431.496094 224.457031 C 429.859375 227.578125 426.007812 228.777344 422.894531 227.140625 C 419.78125 225.503906 418.585938 221.652344 420.222656 218.535156 C 421.863281 215.417969 425.714844 214.214844 428.824219 215.851562 C 431.9375 217.488281 433.136719 221.339844 431.496094 224.457031 " fill-opacity="1" fill-rule="nonzero"/></g></g></g><g clip-path="url(#f9cc310984)"><g clip-path="url(#ba6962701e)"><g clip-path="url(#fd01a60a31)"><path fill="#45f63f" d="M 437.851562 236.738281 C 436.070312 240.125 431.890625 241.429688 428.507812 239.652344 C 425.125 237.875 423.828125 233.6875 425.605469 230.300781 C 427.386719 226.917969 431.570312 225.609375 434.953125 227.386719 C 438.332031 229.164062 439.632812 233.351562 437.851562 236.738281 " fill-opacity="1" fill-rule="nonzero"/></g></g></g><g clip-path="url(#5d194aabc4)"><g clip-path="url(#b2376401f8)"><g clip-path="url(#c6b39b57e8)"><path fill="#45f63f" d="M 441.664062 249.894531 C 439.769531 253.5 435.320312 254.886719 431.722656 252.996094 C 428.125 251.105469 426.742188 246.652344 428.636719 243.050781 C 430.53125 239.445312 434.980469 238.058594 438.578125 239.949219 C 442.175781 241.839844 443.554688 246.292969 441.664062 249.894531 " fill-opacity="1" fill-rule="nonzero"/></g></g></g><g clip-path="url(#8d2306e800)"><g clip-path="url(#1e4f9faaf3)"><g clip-path="url(#99b508ccdc)"><path fill="#45f63f" d="M 443.640625 263.351562 C 441.660156 267.117188 437.011719 268.566406 433.253906 266.589844 C 429.496094 264.617188 428.050781 259.964844 430.027344 256.199219 C 432.007812 252.433594 436.660156 250.984375 440.417969 252.960938 C 444.175781 254.933594 445.617188 259.585938 443.640625 263.351562 " fill-opacity="1" fill-rule="nonzero"/></g></g></g><g clip-path="url(#71c611cc2c)"><g clip-path="url(#cfc2751443)"><g clip-path="url(#775917d8a1)"><path fill="#45f63f" d="M 444.488281 276.859375 C 442.449219 280.742188 437.65625 282.234375 433.78125 280.199219 C 429.90625 278.164062 428.417969 273.367188 430.457031 269.484375 C 432.496094 265.605469 437.289062 264.109375 441.164062 266.144531 C 445.039062 268.183594 446.527344 272.980469 444.488281 276.859375 " fill-opacity="1" fill-rule="nonzero"/></g></g></g><g clip-path="url(#622eb6d78e)"><g clip-path="url(#1a0182b681)"><g clip-path="url(#f6803da44f)"><path fill="#45f63f" d="M 444.773438 290.339844 C 442.699219 294.285156 437.824219 295.808594 433.882812 293.738281 C 429.941406 291.664062 428.425781 286.785156 430.5 282.839844 C 432.578125 278.890625 437.453125 277.371094 441.394531 279.441406 C 445.335938 281.511719 446.847656 286.390625 444.773438 290.339844 " fill-opacity="1" fill-rule="nonzero"/></g></g></g><g clip-path="url(#2c9b2ccd87)"><g clip-path="url(#0cb9b1c2c3)"><g clip-path="url(#f99801640d)"><path fill="#45f63f" d="M 445.070312 303.777344 C 442.984375 307.75 438.074219 309.28125 434.109375 307.195312 C 430.140625 305.113281 428.613281 300.203125 430.703125 296.226562 C 432.792969 292.253906 437.699219 290.722656 441.667969 292.808594 C 445.636719 294.890625 447.160156 299.804688 445.070312 303.777344 " fill-opacity="1" fill-rule="nonzero"/></g></g></g><g clip-path="url(#54c29e9ac8)"><g clip-path="url(#0b8dbdc17a)"><g clip-path="url(#1500fe1667)"><path fill="#45f63f" d="M 446.109375 317.125 C 444.03125 321.074219 439.152344 322.597656 435.207031 320.523438 C 431.261719 318.449219 429.746094 313.570312 431.824219 309.617188 C 433.898438 305.664062 438.78125 304.144531 442.722656 306.214844 C 446.671875 308.289062 448.1875 313.171875 446.109375 317.125 " fill-opacity="1" fill-rule="nonzero"/></g></g></g><g clip-path="url(#23c1a74ab2)"><g clip-path="url(#d0164fd495)"><g clip-path="url(#76c6409a3d)"><path fill="#45f63f" d="M 448.488281 330.230469 C 446.445312 334.117188 441.644531 335.613281 437.765625 333.578125 C 433.886719 331.539062 432.394531 326.734375 434.4375 322.847656 C 436.480469 318.960938 441.28125 317.464844 445.160156 319.503906 C 449.039062 321.542969 450.53125 326.34375 448.488281 330.230469 " fill-opacity="1" fill-rule="nonzero"/></g></g></g><g clip-path="url(#5b94125fe2)"><g clip-path="url(#dc092a206b)"><g clip-path="url(#aacd43d0ad)"><path fill="#45f63f" d="M 452.855469 342.710938 C 450.875 346.484375 446.210938 347.9375 442.445312 345.957031 C 438.675781 343.976562 437.230469 339.316406 439.214844 335.542969 C 441.195312 331.769531 445.855469 330.316406 449.625 332.296875 C 453.390625 334.273438 454.839844 338.9375 452.855469 342.710938 " fill-opacity="1" fill-rule="nonzero"/></g></g></g><g clip-path="url(#2a4cfbfaef)"><g clip-path="url(#0334450b58)"><g clip-path="url(#1b0c027321)"><path fill="#45f63f" d="M 459.8125 353.792969 C 457.914062 357.40625 453.453125 358.796875 449.84375 356.902344 C 446.238281 355.007812 444.855469 350.542969 446.753906 346.929688 C 448.652344 343.316406 453.113281 341.925781 456.71875 343.820312 C 460.328125 345.714844 461.710938 350.179688 459.8125 353.792969 " fill-opacity="1" fill-rule="nonzero"/></g></g></g><g clip-path="url(#ff8f93d8d9)"><g clip-path="url(#c8471ad225)"><g clip-path="url(#d79fe03e67)"><path fill="#45f63f" d="M 469.320312 362.574219 C 467.535156 365.972656 463.339844 367.28125 459.945312 365.5 C 456.554688 363.714844 455.25 359.515625 457.039062 356.117188 C 458.824219 352.722656 463.019531 351.410156 466.414062 353.195312 C 469.804688 354.976562 471.105469 359.175781 469.320312 362.574219 " fill-opacity="1" fill-rule="nonzero"/></g></g></g><g clip-path="url(#47bcebe5db)"><g clip-path="url(#1063c4e7ae)"><g clip-path="url(#bac37c2bc3)"><path fill="#45f63f" d="M 480.546875 368.785156 C 478.902344 371.914062 475.035156 373.117188 471.910156 371.476562 C 468.789062 369.835938 467.589844 365.96875 469.234375 362.839844 C 470.875 359.710938 474.742188 358.503906 477.867188 360.148438 C 480.988281 361.789062 482.1875 365.65625 480.546875 368.785156 " fill-opacity="1" fill-rule="nonzero"/></g></g></g><g clip-path="url(#455feab345)"><g clip-path="url(#179a2d09bf)"><g clip-path="url(#eccd9bc602)"><path fill="#45f63f" d="M 492.707031 372.546875 C 491.234375 375.347656 487.769531 376.429688 484.96875 374.957031 C 482.171875 373.488281 481.101562 370.023438 482.570312 367.222656 C 484.042969 364.417969 487.507812 363.339844 490.304688 364.808594 C 493.101562 366.28125 494.179688 369.742188 492.707031 372.546875 " fill-opacity="1" fill-rule="nonzero"/></g></g></g><g clip-path="url(#8422389053)"><g clip-path="url(#e6d283194e)"><g clip-path="url(#b172d6e76c)"><path fill="#45f63f" d="M 505.230469 374.246094 C 503.964844 376.660156 500.984375 377.589844 498.574219 376.324219 C 496.164062 375.058594 495.238281 372.074219 496.507812 369.660156 C 497.773438 367.25 500.753906 366.320312 503.164062 367.585938 C 505.574219 368.851562 506.5 371.832031 505.230469 374.246094 " fill-opacity="1" fill-rule="nonzero"/></g></g></g><g clip-path="url(#56414df74a)"><g clip-path="url(#8c5b19858c)"><g clip-path="url(#8ac776e756)"><path fill="#45f63f" d="M 517.789062 374.289062 C 516.765625 376.242188 514.351562 376.996094 512.398438 375.96875 C 510.449219 374.945312 509.699219 372.527344 510.726562 370.574219 C 511.753906 368.621094 514.167969 367.867188 516.117188 368.894531 C 518.070312 369.917969 518.816406 372.335938 517.789062 374.289062 " fill-opacity="1" fill-rule="nonzero"/></g></g></g><g clip-path="url(#925fede9a5)"><g clip-path="url(#eda2ae0f04)"><g clip-path="url(#a22df09758)"><path fill="#45f63f" d="M 530.195312 372.984375 C 529.453125 374.402344 527.707031 374.945312 526.292969 374.203125 C 524.878906 373.460938 524.335938 371.710938 525.078125 370.296875 C 525.824219 368.882812 527.574219 368.335938 528.984375 369.078125 C 530.398438 369.820312 530.9375 371.570312 530.195312 372.984375 " fill-opacity="1" fill-rule="nonzero"/></g></g></g><g clip-path="url(#81694ee48c)"><g clip-path="url(#0bce796524)"><g clip-path="url(#4194b732f9)"><path fill="#45f63f" d="M 542.328125 370.558594 C 541.917969 371.339844 540.957031 371.640625 540.175781 371.230469 C 539.398438 370.820312 539.097656 369.859375 539.507812 369.078125 C 539.917969 368.296875 540.882812 367.996094 541.660156 368.40625 C 542.441406 368.816406 542.738281 369.78125 542.328125 370.558594 " fill-opacity="1" fill-rule="nonzero"/></g></g></g><g clip-path="url(#3fda6f9604)"><g clip-path="url(#9be7eee09c)"><g clip-path="url(#2646a59338)"><path fill="#45f63f" d="M 85.804688 48.207031 C 85.394531 48.980469 84.4375 49.28125 83.664062 48.875 C 82.886719 48.46875 82.59375 47.507812 83 46.734375 C 83.40625 45.957031 84.363281 45.660156 85.136719 46.066406 C 85.910156 46.472656 86.210938 47.429688 85.804688 48.207031 " fill-opacity="1" fill-rule="nonzero"/></g></g></g><g clip-path="url(#aad20aafa4)"><g clip-path="url(#d91ef06e48)"><g clip-path="url(#cda354caab)"><path fill="#45f63f" d="M 100.246094 50.433594 C 99.507812 51.839844 97.769531 52.382812 96.363281 51.644531 C 94.957031 50.90625 94.417969 49.164062 95.15625 47.757812 C 95.898438 46.347656 97.636719 45.808594 99.042969 46.546875 C 100.449219 47.285156 100.988281 49.023438 100.246094 50.433594 " fill-opacity="1" fill-rule="nonzero"/></g></g></g><g clip-path="url(#701726a016)"><g clip-path="url(#1a357c6b62)"><g clip-path="url(#86ddbe371e)"><path fill="#45f63f" d="M 114.296875 53.832031 C 113.273438 55.777344 110.871094 56.527344 108.929688 55.507812 C 106.988281 54.488281 106.242188 52.085938 107.265625 50.136719 C 108.285156 48.195312 110.6875 47.445312 112.628906 48.464844 C 114.570312 49.484375 115.316406 51.890625 114.296875 53.832031 " fill-opacity="1" fill-rule="nonzero"/></g></g></g><g clip-path="url(#8cc78a1815)"><g clip-path="url(#26fe08d255)"><g clip-path="url(#4811649525)"><path fill="#45f63f" d="M 127.539062 59.253906 C 126.273438 61.65625 123.308594 62.582031 120.910156 61.324219 C 118.511719 60.0625 117.589844 57.09375 118.851562 54.691406 C 120.113281 52.289062 123.082031 51.363281 125.480469 52.625 C 127.878906 53.882812 128.800781 56.851562 127.539062 59.253906 " fill-opacity="1" fill-rule="nonzero"/></g></g></g><g clip-path="url(#5917f655f3)"><g clip-path="url(#2acc9a75db)"><g clip-path="url(#bff8d1f5f0)"><path fill="#45f63f" d="M 139.152344 67.339844 C 137.6875 70.132812 134.242188 71.207031 131.453125 69.742188 C 128.664062 68.277344 127.597656 64.828125 129.0625 62.039062 C 130.53125 59.246094 133.976562 58.167969 136.765625 59.632812 C 139.550781 61.097656 140.621094 64.546875 139.152344 67.339844 " fill-opacity="1" fill-rule="nonzero"/></g></g></g><g clip-path="url(#1195925dea)"><g clip-path="url(#93893500d9)"><g clip-path="url(#c8076f29ff)"><path fill="#45f63f" d="M 148.367188 77.863281 C 146.730469 80.980469 142.875 82.183594 139.765625 80.546875 C 136.652344 78.910156 135.457031 75.058594 137.097656 71.941406 C 138.734375 68.824219 142.585938 67.621094 145.699219 69.257812 C 148.808594 70.890625 150.003906 74.746094 148.367188 77.863281 " fill-opacity="1" fill-rule="nonzero"/></g></g></g><g clip-path="url(#9321db1c72)"><g clip-path="url(#5fe5cf74df)"><g clip-path="url(#c30a6a934a)"><path fill="#45f63f" d="M 154.722656 90.140625 C 152.941406 93.53125 148.757812 94.835938 145.375 93.058594 C 141.996094 91.28125 140.695312 87.097656 142.476562 83.707031 C 144.257812 80.320312 148.441406 79.015625 151.820312 80.792969 C 155.203125 82.570312 156.5 86.757812 154.722656 90.140625 " fill-opacity="1" fill-rule="nonzero"/></g></g></g><g clip-path="url(#2ab81c6b3d)"><g clip-path="url(#6451c4ae5b)"><g clip-path="url(#17b98e5e32)"><path fill="#45f63f" d="M 158.535156 103.300781 C 156.640625 106.902344 152.1875 108.292969 148.589844 106.402344 C 144.996094 104.511719 143.613281 100.058594 145.507812 96.453125 C 147.398438 92.851562 151.851562 91.464844 155.449219 93.355469 C 159.046875 95.246094 160.429688 99.699219 158.535156 103.300781 " fill-opacity="1" fill-rule="nonzero"/></g></g></g><g clip-path="url(#3b3cd4c307)"><g clip-path="url(#0451108849)"><g clip-path="url(#ddc160a126)"><path fill="#45f63f" d="M 160.511719 116.753906 C 158.53125 120.523438 153.882812 121.972656 150.125 119.996094 C 146.363281 118.019531 144.917969 113.367188 146.898438 109.601562 C 148.878906 105.835938 153.527344 104.386719 157.285156 106.363281 C 161.046875 108.339844 162.488281 112.992188 160.511719 116.753906 " fill-opacity="1" fill-rule="nonzero"/></g></g></g><g clip-path="url(#6fe065563e)"><g clip-path="url(#45eefd04a1)"><g clip-path="url(#9f5c7ab019)"><path fill="#45f63f" d="M 161.359375 130.265625 C 159.320312 134.148438 154.523438 135.644531 150.648438 133.605469 C 146.773438 131.570312 145.285156 126.773438 147.324219 122.894531 C 149.363281 119.011719 154.160156 117.515625 158.035156 119.550781 C 161.910156 121.589844 163.398438 126.386719 161.359375 130.265625 " fill-opacity="1" fill-rule="nonzero"/></g></g></g><g clip-path="url(#c5cf8c4e4a)"><g clip-path="url(#fd7637723b)"><g clip-path="url(#742b6b66e0)"><path fill="#45f63f" d="M 161.648438 143.746094 C 159.570312 147.691406 154.691406 149.214844 150.75 147.144531 C 146.808594 145.070312 145.296875 140.191406 147.371094 136.242188 C 149.445312 132.296875 154.324219 130.773438 158.265625 132.847656 C 162.207031 134.917969 163.71875 139.796875 161.648438 143.746094 " fill-opacity="1" fill-rule="nonzero"/></g></g></g><g clip-path="url(#b1b70f67cc)"><g clip-path="url(#dc5cf5182e)"><g clip-path="url(#ec036a26ab)"><path fill="#45f63f" d="M 161.941406 157.183594 C 159.851562 161.15625 154.945312 162.6875 150.976562 160.601562 C 147.007812 158.515625 145.488281 153.605469 147.574219 149.632812 C 149.664062 145.660156 154.570312 144.128906 158.539062 146.210938 C 162.503906 148.296875 164.027344 153.210938 161.941406 157.183594 " fill-opacity="1" fill-rule="nonzero"/></g></g></g><g clip-path="url(#820be52393)"><g clip-path="url(#f8b68602dc)"><g clip-path="url(#50be2d01b5)"><path fill="#45f63f" d="M 162.980469 170.53125 C 160.902344 174.480469 156.019531 176.003906 152.078125 173.929688 C 148.132812 171.859375 146.617188 166.972656 148.691406 163.023438 C 150.769531 159.070312 155.652344 157.546875 159.597656 159.621094 C 163.539062 161.695312 165.054688 166.578125 162.980469 170.53125 " fill-opacity="1" fill-rule="nonzero"/></g></g></g><g clip-path="url(#bf98be09dd)"><g clip-path="url(#4a5aea332c)"><g clip-path="url(#8ffbaec88a)"><path fill="#45f63f" d="M 165.359375 183.636719 C 163.316406 187.523438 158.515625 189.019531 154.636719 186.980469 C 150.753906 184.941406 149.265625 180.140625 151.304688 176.253906 C 153.347656 172.367188 158.148438 170.867188 162.03125 172.90625 C 165.910156 174.945312 167.402344 179.75 165.359375 183.636719 " fill-opacity="1" fill-rule="nonzero"/></g></g></g><g clip-path="url(#0b63308c07)"><g clip-path="url(#d1bc2a3398)"><g clip-path="url(#4c12597b04)"><path fill="#45f63f" d="M 169.726562 196.113281 C 167.742188 199.886719 163.082031 201.339844 159.316406 199.363281 C 155.546875 197.382812 154.101562 192.71875 156.085938 188.945312 C 158.066406 185.175781 162.726562 183.722656 166.492188 185.703125 C 170.261719 187.679688 171.707031 192.34375 169.726562 196.113281 " fill-opacity="1" fill-rule="nonzero"/></g></g></g><g clip-path="url(#b592dc8b55)"><g clip-path="url(#9dd1c2186f)"><g clip-path="url(#4975727ca3)"><path fill="#45f63f" d="M 176.683594 207.195312 C 174.785156 210.808594 170.324219 212.203125 166.714844 210.308594 C 163.109375 208.410156 161.722656 203.945312 163.621094 200.332031 C 165.519531 196.722656 169.984375 195.328125 173.589844 197.226562 C 177.195312 199.121094 178.582031 203.585938 176.683594 207.195312 " fill-opacity="1" fill-rule="nonzero"/></g></g></g><g clip-path="url(#3ee9795e60)"><g clip-path="url(#3392e0264b)"><g clip-path="url(#f346e3f03c)"><path fill="#45f63f" d="M 186.191406 215.980469 C 184.40625 219.375 180.210938 220.6875 176.816406 218.902344 C 173.425781 217.121094 172.121094 212.921875 173.90625 209.523438 C 175.691406 206.125 179.890625 204.816406 183.28125 206.601562 C 186.675781 208.382812 187.976562 212.582031 186.191406 215.980469 " fill-opacity="1" fill-rule="nonzero"/></g></g></g><g clip-path="url(#085adc010b)"><g clip-path="url(#3a995887a1)"><g clip-path="url(#467e02d324)"><path fill="#45f63f" d="M 197.414062 222.1875 C 195.769531 225.320312 191.902344 226.523438 188.78125 224.882812 C 185.65625 223.242188 184.457031 219.375 186.101562 216.242188 C 187.746094 213.117188 191.613281 211.910156 194.734375 213.550781 C 197.859375 215.191406 199.058594 219.058594 197.414062 222.1875 " fill-opacity="1" fill-rule="nonzero"/></g></g></g><g clip-path="url(#c4abfe0d4a)"><g clip-path="url(#2a836e6590)"><g clip-path="url(#73f5c223e8)"><path fill="#45f63f" d="M 209.574219 225.949219 C 208.101562 228.753906 204.640625 229.832031 201.84375 228.363281 C 199.042969 226.894531 197.96875 223.429688 199.441406 220.625 C 200.914062 217.824219 204.375 216.742188 207.175781 218.214844 C 209.972656 219.683594 211.046875 223.148438 209.574219 225.949219 " fill-opacity="1" fill-rule="nonzero"/></g></g></g><g clip-path="url(#541229b3a8)"><g clip-path="url(#996517c33b)"><g clip-path="url(#1d9c5f3327)"><path fill="#45f63f" d="M 222.101562 227.652344 C 220.832031 230.066406 217.851562 230.996094 215.445312 229.730469 C 213.035156 228.460938 212.109375 225.480469 213.378906 223.066406 C 214.644531 220.652344 217.625 219.722656 220.035156 220.992188 C 222.445312 222.257812 223.371094 225.238281 222.101562 227.652344 " fill-opacity="1" fill-rule="nonzero"/></g></g></g><g clip-path="url(#4b808377f8)"><g clip-path="url(#c697d4f3e0)"><g clip-path="url(#ba65ab2720)"><path fill="#45f63f" d="M 234.664062 227.691406 C 233.636719 229.648438 231.222656 230.398438 229.269531 229.375 C 227.320312 228.351562 226.570312 225.933594 227.597656 223.980469 C 228.625 222.027344 231.039062 221.273438 232.988281 222.296875 C 234.941406 223.324219 235.691406 225.738281 234.664062 227.691406 " fill-opacity="1" fill-rule="nonzero"/></g></g></g><g clip-path="url(#d33a2bf821)"><g clip-path="url(#7f23638687)"><g clip-path="url(#864a3e7d7c)"><path fill="#45f63f" d="M 247.066406 226.390625 C 246.324219 227.808594 244.574219 228.351562 243.160156 227.609375 C 241.75 226.867188 241.207031 225.117188 241.949219 223.703125 C 242.691406 222.285156 244.441406 221.742188 245.855469 222.484375 C 247.269531 223.226562 247.8125 224.976562 247.066406 226.390625 " fill-opacity="1" fill-rule="nonzero"/></g></g></g><g clip-path="url(#539d5f6d53)"><g clip-path="url(#6cad5fcdab)"><g clip-path="url(#c4e7932ca0)"><path fill="#45f63f" d="M 259.199219 223.964844 C 258.789062 224.742188 257.824219 225.042969 257.046875 224.636719 C 256.269531 224.226562 255.96875 223.261719 256.378906 222.484375 C 256.789062 221.703125 257.753906 221.402344 258.53125 221.8125 C 259.308594 222.21875 259.609375 223.1875 259.199219 223.964844 " fill-opacity="1" fill-rule="nonzero"/></g></g></g></g></g></g></svg>