<svg xmlns="http://www.w3.org/2000/svg" xmlns:xlink="http://www.w3.org/1999/xlink" width="800" zoomAndPan="magnify" viewBox="0 0 600 599.999999" height="800" preserveAspectRatio="xMidYMid meet" version="1.0"><defs><clipPath id="9930a570d7"><path d="M 0 447 L 181 447 L 181 557.761719 L 0 557.761719 Z M 0 447 " clip-rule="nonzero"/></clipPath><clipPath id="651e101a21"><path d="M 200 447 L 600 447 L 600 557.761719 L 200 557.761719 Z M 200 447 " clip-rule="nonzero"/></clipPath><clipPath id="5419aee47c"><path d="M 0.0078125 156.230469 L 315 156.230469 L 315 342.207031 L 0.0078125 342.207031 Z M 0.0078125 156.230469 " clip-rule="nonzero"/></clipPath><clipPath id="1dfe6822d6"><path d="M 87 156.230469 L 493 156.230469 L 493 342.207031 L 87 342.207031 Z M 87 156.230469 " clip-rule="nonzero"/></clipPath><clipPath id="62e11347d1"><path d="M 258 156.230469 L 600 156.230469 L 600 342.207031 L 258 342.207031 Z M 258 156.230469 " clip-rule="nonzero"/></clipPath><clipPath id="a9285efad4"><path d="M 0.0078125 166 L 95 166 L 95 342.207031 L 0.0078125 342.207031 Z M 0.0078125 166 " clip-rule="nonzero"/></clipPath><clipPath id="ff27ab0668"><path d="M 2 156.230469 L 153 156.230469 L 153 342.207031 L 2 342.207031 Z M 2 156.230469 " clip-rule="nonzero"/></clipPath><clipPath id="fabb8d80c0"><path d="M 79 156.230469 L 230 156.230469 L 230 342.207031 L 79 342.207031 Z M 79 156.230469 " clip-rule="nonzero"/></clipPath><clipPath id="c947ba2a6e"><path d="M 160 156.230469 L 310 156.230469 L 310 342.207031 L 160 342.207031 Z M 160 156.230469 " clip-rule="nonzero"/></clipPath><clipPath id="0d82515296"><path d="M 180 156.230469 L 327 156.230469 L 327 342.207031 L 180 342.207031 Z M 180 156.230469 " clip-rule="nonzero"/></clipPath><clipPath id="ebfebbc73e"><path d="M 199 156.230469 L 349 156.230469 L 349 342.207031 L 199 342.207031 Z M 199 156.230469 " clip-rule="nonzero"/></clipPath><clipPath id="b171162d0b"><path d="M 354 156.230469 L 505 156.230469 L 505 342.207031 L 354 342.207031 Z M 354 156.230469 " clip-rule="nonzero"/></clipPath><clipPath id="6cb36181b4"><path d="M 394 156.230469 L 545 156.230469 L 545 342.207031 L 394 342.207031 Z M 394 156.230469 " clip-rule="nonzero"/></clipPath><clipPath id="5f65a358fa"><path d="M 452 156.230469 L 600 156.230469 L 600 342.207031 L 452 342.207031 Z M 452 156.230469 " clip-rule="nonzero"/></clipPath><clipPath id="8c7e6feac8"><path d="M 0.0078125 156.230469 L 116 156.230469 L 116 342.207031 L 0.0078125 342.207031 Z M 0.0078125 156.230469 " clip-rule="nonzero"/></clipPath><clipPath id="7fddca539b"><path d="M 0.0078125 156.230469 L 134 156.230469 L 134 342.207031 L 0.0078125 342.207031 Z M 0.0078125 156.230469 " clip-rule="nonzero"/></clipPath><clipPath id="774808d5aa"><path d="M 43 156.230469 L 189 156.230469 L 189 342.207031 L 43 342.207031 Z M 43 156.230469 " clip-rule="nonzero"/></clipPath><clipPath id="e66ce69f6c"><path d="M 58 156.230469 L 210 156.230469 L 210 342.207031 L 58 342.207031 Z M 58 156.230469 " clip-rule="nonzero"/></clipPath><clipPath id="a680832ec4"><path d="M 218 156.230469 L 368 156.230469 L 368 342.207031 L 218 342.207031 Z M 218 156.230469 " clip-rule="nonzero"/></clipPath><clipPath id="5f161f6ab5"><path d="M 239 156.230469 L 386 156.230469 L 386 342.207031 L 239 342.207031 Z M 239 156.230469 " clip-rule="nonzero"/></clipPath><clipPath id="542a2d8c5f"><path d="M 260 156.230469 L 410 156.230469 L 410 342.207031 L 260 342.207031 Z M 260 156.230469 " clip-rule="nonzero"/></clipPath><clipPath id="980dcc3074"><path d="M 277 156.230469 L 424 156.230469 L 424 342.207031 L 277 342.207031 Z M 277 156.230469 " clip-rule="nonzero"/></clipPath><clipPath id="228b77c72d"><path d="M 337 156.230469 L 484 156.230469 L 484 338 L 337 338 Z M 337 156.230469 " clip-rule="nonzero"/></clipPath><clipPath id="2fb7fa2beb"><path d="M 416 156.230469 L 564 156.230469 L 564 342.207031 L 416 342.207031 Z M 416 156.230469 " clip-rule="nonzero"/></clipPath><clipPath id="f79ea643f9"><path d="M 435 156.230469 L 587 156.230469 L 587 342.207031 L 435 342.207031 Z M 435 156.230469 " clip-rule="nonzero"/></clipPath><clipPath id="fc4b367307"><path d="M 470 156.230469 L 600 156.230469 L 600 342.207031 L 470 342.207031 Z M 470 156.230469 " clip-rule="nonzero"/></clipPath><clipPath id="10c77cda28"><path d="M 485 156.230469 L 600 156.230469 L 600 340 L 485 340 Z M 485 156.230469 " clip-rule="nonzero"/></clipPath><clipPath id="1c8806c974"><path d="M 264 156.230469 L 600 156.230469 L 600 342.207031 L 264 342.207031 Z M 264 156.230469 " clip-rule="nonzero"/></clipPath><clipPath id="61afa76be3"><path d="M 376 156.230469 L 527 156.230469 L 527 342.207031 L 376 342.207031 Z M 376 156.230469 " clip-rule="nonzero"/></clipPath><clipPath id="73c22a32aa"><path d="M 86 156.230469 L 487 156.230469 L 487 342.207031 L 86 342.207031 Z M 86 156.230469 " clip-rule="nonzero"/></clipPath><clipPath id="4c72b67d7c"><path d="M 0.0078125 156.230469 L 316 156.230469 L 316 342.207031 L 0.0078125 342.207031 Z M 0.0078125 156.230469 " clip-rule="nonzero"/></clipPath><clipPath id="517aac5f7b"><path d="M 0.0078125 279.445312 L 315 279.445312 L 315 465.421875 L 0.0078125 465.421875 Z M 0.0078125 279.445312 " clip-rule="nonzero"/></clipPath><clipPath id="4f4679b6d6"><path d="M 87 279.445312 L 493 279.445312 L 493 465.421875 L 87 465.421875 Z M 87 279.445312 " clip-rule="nonzero"/></clipPath><clipPath id="acf6d04134"><path d="M 258 279.445312 L 600 279.445312 L 600 465.421875 L 258 465.421875 Z M 258 279.445312 " clip-rule="nonzero"/></clipPath><clipPath id="25c5d01593"><path d="M 0.0078125 289 L 95 289 L 95 465.421875 L 0.0078125 465.421875 Z M 0.0078125 289 " clip-rule="nonzero"/></clipPath><clipPath id="ec6e3ccc60"><path d="M 2 279.445312 L 153 279.445312 L 153 465.421875 L 2 465.421875 Z M 2 279.445312 " clip-rule="nonzero"/></clipPath><clipPath id="fdf4f3a9de"><path d="M 79 279.445312 L 230 279.445312 L 230 465.421875 L 79 465.421875 Z M 79 279.445312 " clip-rule="nonzero"/></clipPath><clipPath id="e98abcb553"><path d="M 160 279.445312 L 310 279.445312 L 310 465.421875 L 160 465.421875 Z M 160 279.445312 " clip-rule="nonzero"/></clipPath><clipPath id="cd705ec5bb"><path d="M 180 279.445312 L 327 279.445312 L 327 465.421875 L 180 465.421875 Z M 180 279.445312 " clip-rule="nonzero"/></clipPath><clipPath id="e5e552b35c"><path d="M 199 279.445312 L 349 279.445312 L 349 465.421875 L 199 465.421875 Z M 199 279.445312 " clip-rule="nonzero"/></clipPath><clipPath id="4e90db9ce1"><path d="M 354 279.445312 L 505 279.445312 L 505 465.421875 L 354 465.421875 Z M 354 279.445312 " clip-rule="nonzero"/></clipPath><clipPath id="24345282c7"><path d="M 394 279.445312 L 545 279.445312 L 545 465.421875 L 394 465.421875 Z M 394 279.445312 " clip-rule="nonzero"/></clipPath><clipPath id="ef7e17f07b"><path d="M 452 279.445312 L 600 279.445312 L 600 465.421875 L 452 465.421875 Z M 452 279.445312 " clip-rule="nonzero"/></clipPath><clipPath id="b69a3062b9"><path d="M 0.0078125 279.445312 L 116 279.445312 L 116 465.421875 L 0.0078125 465.421875 Z M 0.0078125 279.445312 " clip-rule="nonzero"/></clipPath><clipPath id="8281410556"><path d="M 0.0078125 279.445312 L 134 279.445312 L 134 465.421875 L 0.0078125 465.421875 Z M 0.0078125 279.445312 " clip-rule="nonzero"/></clipPath><clipPath id="5f0d759433"><path d="M 43 279.445312 L 189 279.445312 L 189 465.421875 L 43 465.421875 Z M 43 279.445312 " clip-rule="nonzero"/></clipPath><clipPath id="34ab48faff"><path d="M 58 279.445312 L 210 279.445312 L 210 465.421875 L 58 465.421875 Z M 58 279.445312 " clip-rule="nonzero"/></clipPath><clipPath id="90f1cf6693"><path d="M 218 279.445312 L 368 279.445312 L 368 465.421875 L 218 465.421875 Z M 218 279.445312 " clip-rule="nonzero"/></clipPath><clipPath id="e648955ffe"><path d="M 239 279.445312 L 386 279.445312 L 386 465.421875 L 239 465.421875 Z M 239 279.445312 " clip-rule="nonzero"/></clipPath><clipPath id="ad1bff5bf6"><path d="M 260 279.445312 L 410 279.445312 L 410 465.421875 L 260 465.421875 Z M 260 279.445312 " clip-rule="nonzero"/></clipPath><clipPath id="ea617f4840"><path d="M 277 279.445312 L 424 279.445312 L 424 465.421875 L 277 465.421875 Z M 277 279.445312 " clip-rule="nonzero"/></clipPath><clipPath id="594ba25738"><path d="M 337 279.445312 L 484 279.445312 L 484 462 L 337 462 Z M 337 279.445312 " clip-rule="nonzero"/></clipPath><clipPath id="3d4fef9116"><path d="M 416 279.445312 L 564 279.445312 L 564 465.421875 L 416 465.421875 Z M 416 279.445312 " clip-rule="nonzero"/></clipPath><clipPath id="6066ff5047"><path d="M 435 279.445312 L 587 279.445312 L 587 465.421875 L 435 465.421875 Z M 435 279.445312 " clip-rule="nonzero"/></clipPath><clipPath id="ce666f7f2a"><path d="M 470 279.445312 L 600 279.445312 L 600 465.421875 L 470 465.421875 Z M 470 279.445312 " clip-rule="nonzero"/></clipPath><clipPath id="fb8cb52cb1"><path d="M 485 279.445312 L 600 279.445312 L 600 463 L 485 463 Z M 485 279.445312 " clip-rule="nonzero"/></clipPath><clipPath id="0f483fbad3"><path d="M 264 279.445312 L 600 279.445312 L 600 465.421875 L 264 465.421875 Z M 264 279.445312 " clip-rule="nonzero"/></clipPath><clipPath id="0154c5c5c2"><path d="M 376 279.445312 L 527 279.445312 L 527 465.421875 L 376 465.421875 Z M 376 279.445312 " clip-rule="nonzero"/></clipPath><clipPath id="03fd085f41"><path d="M 86 279.445312 L 487 279.445312 L 487 465.421875 L 86 465.421875 Z M 86 279.445312 " clip-rule="nonzero"/></clipPath><clipPath id="2e06067db7"><path d="M 0.0078125 279.445312 L 316 279.445312 L 316 465.421875 L 0.0078125 465.421875 Z M 0.0078125 279.445312 " clip-rule="nonzero"/></clipPath><clipPath id="9168aff00c"><path d="M 0.0078125 414.011719 L 315 414.011719 L 315 599.988281 L 0.0078125 599.988281 Z M 0.0078125 414.011719 " clip-rule="nonzero"/></clipPath><clipPath id="06bcaae314"><path d="M 87 414.011719 L 493 414.011719 L 493 599.988281 L 87 599.988281 Z M 87 414.011719 " clip-rule="nonzero"/></clipPath><clipPath id="f9ca76f1b5"><path d="M 258 414.011719 L 600 414.011719 L 600 599.988281 L 258 599.988281 Z M 258 414.011719 " clip-rule="nonzero"/></clipPath><clipPath id="f4c984de96"><path d="M 0.0078125 423 L 95 423 L 95 599.988281 L 0.0078125 599.988281 Z M 0.0078125 423 " clip-rule="nonzero"/></clipPath><clipPath id="d78e30e10e"><path d="M 2 414.011719 L 153 414.011719 L 153 599.988281 L 2 599.988281 Z M 2 414.011719 " clip-rule="nonzero"/></clipPath><clipPath id="98c20df70d"><path d="M 79 414.011719 L 230 414.011719 L 230 599.988281 L 79 599.988281 Z M 79 414.011719 " clip-rule="nonzero"/></clipPath><clipPath id="bda6af7e89"><path d="M 160 414.011719 L 310 414.011719 L 310 599.988281 L 160 599.988281 Z M 160 414.011719 " clip-rule="nonzero"/></clipPath><clipPath id="728efb9488"><path d="M 180 414.011719 L 327 414.011719 L 327 599.988281 L 180 599.988281 Z M 180 414.011719 " clip-rule="nonzero"/></clipPath><clipPath id="4593c2548b"><path d="M 199 414.011719 L 349 414.011719 L 349 599.988281 L 199 599.988281 Z M 199 414.011719 " clip-rule="nonzero"/></clipPath><clipPath id="646121ec34"><path d="M 354 414.011719 L 505 414.011719 L 505 599.988281 L 354 599.988281 Z M 354 414.011719 " clip-rule="nonzero"/></clipPath><clipPath id="65344b4ad6"><path d="M 394 414.011719 L 545 414.011719 L 545 599.988281 L 394 599.988281 Z M 394 414.011719 " clip-rule="nonzero"/></clipPath><clipPath id="e5218cf47e"><path d="M 452 414.011719 L 600 414.011719 L 600 599.988281 L 452 599.988281 Z M 452 414.011719 " clip-rule="nonzero"/></clipPath><clipPath id="56cd6f0768"><path d="M 0.0078125 414.011719 L 116 414.011719 L 116 599.988281 L 0.0078125 599.988281 Z M 0.0078125 414.011719 " clip-rule="nonzero"/></clipPath><clipPath id="3d552f035a"><path d="M 0.0078125 414.011719 L 134 414.011719 L 134 599.988281 L 0.0078125 599.988281 Z M 0.0078125 414.011719 " clip-rule="nonzero"/></clipPath><clipPath id="d0dd700836"><path d="M 43 414.011719 L 189 414.011719 L 189 599.988281 L 43 599.988281 Z M 43 414.011719 " clip-rule="nonzero"/></clipPath><clipPath id="00a2b9898e"><path d="M 58 414.011719 L 210 414.011719 L 210 599.988281 L 58 599.988281 Z M 58 414.011719 " clip-rule="nonzero"/></clipPath><clipPath id="5907dd52ad"><path d="M 218 414.011719 L 368 414.011719 L 368 599.988281 L 218 599.988281 Z M 218 414.011719 " clip-rule="nonzero"/></clipPath><clipPath id="edac662102"><path d="M 239 414.011719 L 386 414.011719 L 386 599.988281 L 239 599.988281 Z M 239 414.011719 " clip-rule="nonzero"/></clipPath><clipPath id="3ce666b2e6"><path d="M 260 414.011719 L 410 414.011719 L 410 599.988281 L 260 599.988281 Z M 260 414.011719 " clip-rule="nonzero"/></clipPath><clipPath id="7db7f18ce6"><path d="M 277 414.011719 L 424 414.011719 L 424 599.988281 L 277 599.988281 Z M 277 414.011719 " clip-rule="nonzero"/></clipPath><clipPath id="9ec803c69c"><path d="M 337 414.011719 L 484 414.011719 L 484 596 L 337 596 Z M 337 414.011719 " clip-rule="nonzero"/></clipPath><clipPath id="8a3ab24033"><path d="M 416 414.011719 L 564 414.011719 L 564 599.988281 L 416 599.988281 Z M 416 414.011719 " clip-rule="nonzero"/></clipPath><clipPath id="4e66ffd765"><path d="M 435 414.011719 L 587 414.011719 L 587 599.988281 L 435 599.988281 Z M 435 414.011719 " clip-rule="nonzero"/></clipPath><clipPath id="82ba09d804"><path d="M 470 414.011719 L 600 414.011719 L 600 599.988281 L 470 599.988281 Z M 470 414.011719 " clip-rule="nonzero"/></clipPath><clipPath id="88703204a7"><path d="M 485 414.011719 L 600 414.011719 L 600 598 L 485 598 Z M 485 414.011719 " clip-rule="nonzero"/></clipPath><clipPath id="3b92639a4b"><path d="M 264 414.011719 L 600 414.011719 L 600 599.988281 L 264 599.988281 Z M 264 414.011719 " clip-rule="nonzero"/></clipPath><clipPath id="044c46261a"><path d="M 376 414.011719 L 527 414.011719 L 527 599.988281 L 376 599.988281 Z M 376 414.011719 " clip-rule="nonzero"/></clipPath><clipPath id="59018cf5dc"><path d="M 86 414.011719 L 487 414.011719 L 487 599.988281 L 86 599.988281 Z M 86 414.011719 " clip-rule="nonzero"/></clipPath><clipPath id="57c6d14ce5"><path d="M 0.0078125 414.011719 L 316 414.011719 L 316 599.988281 L 0.0078125 599.988281 Z M 0.0078125 414.011719 " clip-rule="nonzero"/></clipPath></defs><path fill="#008036" d="M 390.023438 68.003906 L 390.023438 167.925781 L 200.011719 167.925781 L 200.011719 68.003906 C 200.011719 67.347656 200.078125 66.695312 200.203125 66.054688 C 200.332031 65.410156 200.523438 64.785156 200.773438 64.179688 C 201.023438 63.574219 201.332031 62.996094 201.699219 62.449219 C 202.0625 61.90625 202.476562 61.402344 202.941406 60.9375 C 203.40625 60.472656 203.910156 60.058594 204.457031 59.695312 C 205.003906 59.328125 205.578125 59.023438 206.1875 58.769531 C 206.792969 58.519531 207.417969 58.332031 208.0625 58.203125 C 208.707031 58.074219 209.355469 58.011719 210.011719 58.011719 L 230.015625 58.011719 L 230.015625 38.023438 C 230.015625 37.367188 230.078125 36.71875 230.207031 36.074219 C 230.335938 35.433594 230.523438 34.808594 230.777344 34.203125 C 231.027344 33.59375 231.335938 33.019531 231.699219 32.472656 C 232.066406 31.929688 232.480469 31.421875 232.945312 30.960938 C 233.40625 30.496094 233.914062 30.082031 234.457031 29.71875 C 235.003906 29.351562 235.582031 29.042969 236.1875 28.792969 C 236.792969 28.542969 237.417969 28.351562 238.0625 28.226562 C 238.707031 28.097656 239.359375 28.03125 240.015625 28.03125 L 260.015625 28.03125 C 260.671875 28.03125 261.324219 28.097656 261.96875 28.226562 C 262.609375 28.351562 263.238281 28.542969 263.84375 28.792969 C 264.449219 29.042969 265.027344 29.351562 265.570312 29.714844 C 266.117188 30.082031 266.625 30.496094 267.085938 30.960938 C 267.550781 31.421875 267.964844 31.929688 268.332031 32.472656 C 268.695312 33.019531 269.003906 33.59375 269.253906 34.203125 C 269.507812 34.808594 269.695312 35.433594 269.824219 36.074219 C 269.953125 36.71875 270.015625 37.367188 270.015625 38.023438 L 270.015625 58.011719 L 320.019531 58.011719 L 320.019531 38.023438 C 320.019531 37.367188 320.082031 36.71875 320.210938 36.074219 C 320.339844 35.433594 320.53125 34.808594 320.78125 34.203125 C 321.03125 33.59375 321.339844 33.019531 321.707031 32.472656 C 322.070312 31.929688 322.484375 31.421875 322.949219 30.960938 C 323.414062 30.496094 323.917969 30.082031 324.464844 29.71875 C 325.011719 29.351562 325.585938 29.042969 326.195312 28.792969 C 326.800781 28.542969 327.425781 28.351562 328.070312 28.226562 C 328.714844 28.097656 329.363281 28.03125 330.019531 28.03125 L 350.023438 28.03125 C 350.679688 28.03125 351.328125 28.097656 351.972656 28.226562 C 352.617188 28.351562 353.242188 28.542969 353.847656 28.792969 C 354.457031 29.042969 355.03125 29.351562 355.578125 29.714844 C 356.125 30.082031 356.628906 30.496094 357.09375 30.960938 C 357.558594 31.421875 357.972656 31.929688 358.335938 32.472656 C 358.703125 33.019531 359.011719 33.59375 359.261719 34.203125 C 359.511719 34.808594 359.703125 35.433594 359.832031 36.074219 C 359.957031 36.71875 360.023438 37.367188 360.023438 38.023438 L 360.023438 58.011719 L 380.023438 58.011719 C 380.679688 58.011719 381.332031 58.074219 381.976562 58.203125 C 382.617188 58.332031 383.242188 58.519531 383.851562 58.769531 C 384.457031 59.023438 385.035156 59.328125 385.578125 59.695312 C 386.125 60.058594 386.628906 60.472656 387.09375 60.9375 C 387.558594 61.402344 387.972656 61.90625 388.339844 62.449219 C 388.703125 62.996094 389.011719 63.574219 389.261719 64.179688 C 389.515625 64.785156 389.703125 65.410156 389.832031 66.054688 C 389.960938 66.695312 390.023438 67.347656 390.023438 68.003906 Z M 390.023438 68.003906 " fill-opacity="1" fill-rule="nonzero"/><path fill="#008036" d="M 600.039062 68.003906 L 600.039062 167.925781 L 410.027344 167.925781 L 410.027344 68.003906 C 410.027344 67.347656 410.089844 66.695312 410.21875 66.054688 C 410.347656 65.410156 410.535156 64.785156 410.785156 64.179688 C 411.039062 63.574219 411.347656 62.996094 411.710938 62.449219 C 412.074219 61.90625 412.492188 61.402344 412.953125 60.9375 C 413.417969 60.472656 413.925781 60.058594 414.46875 59.695312 C 415.015625 59.328125 415.59375 59.023438 416.199219 58.769531 C 416.804688 58.519531 417.429688 58.332031 418.074219 58.203125 C 418.71875 58.074219 419.371094 58.011719 420.027344 58.011719 L 440.027344 58.011719 L 440.027344 38.023438 C 440.027344 37.367188 440.089844 36.71875 440.21875 36.074219 C 440.347656 35.433594 440.539062 34.808594 440.789062 34.203125 C 441.039062 33.59375 441.347656 33.019531 441.710938 32.472656 C 442.078125 31.929688 442.492188 31.421875 442.957031 30.960938 C 443.421875 30.496094 443.925781 30.082031 444.472656 29.71875 C 445.019531 29.351562 445.59375 29.042969 446.199219 28.792969 C 446.808594 28.542969 447.433594 28.351562 448.078125 28.226562 C 448.722656 28.097656 449.371094 28.03125 450.027344 28.03125 L 470.027344 28.03125 C 470.6875 28.03125 471.335938 28.097656 471.980469 28.226562 C 472.625 28.351562 473.25 28.542969 473.855469 28.792969 C 474.464844 29.042969 475.039062 29.351562 475.585938 29.714844 C 476.132812 30.082031 476.636719 30.496094 477.101562 30.960938 C 477.566406 31.421875 477.980469 31.929688 478.34375 32.472656 C 478.710938 33.019531 479.015625 33.59375 479.269531 34.203125 C 479.519531 34.808594 479.710938 35.433594 479.835938 36.074219 C 479.964844 36.71875 480.03125 37.367188 480.03125 38.023438 L 480.03125 58.011719 L 530.03125 58.011719 L 530.03125 38.023438 C 530.03125 37.367188 530.097656 36.71875 530.226562 36.074219 C 530.351562 35.433594 530.542969 34.808594 530.792969 34.203125 C 531.046875 33.59375 531.355469 33.019531 531.71875 32.472656 C 532.082031 31.929688 532.496094 31.421875 532.960938 30.960938 C 533.425781 30.496094 533.929688 30.082031 534.476562 29.71875 C 535.023438 29.351562 535.601562 29.042969 536.207031 28.792969 C 536.8125 28.542969 537.4375 28.351562 538.082031 28.226562 C 538.726562 28.097656 539.378906 28.03125 540.035156 28.03125 L 560.035156 28.03125 C 560.691406 28.03125 561.34375 28.097656 561.984375 28.226562 C 562.628906 28.351562 563.253906 28.542969 563.863281 28.792969 C 564.46875 29.042969 565.042969 29.351562 565.589844 29.714844 C 566.136719 30.082031 566.640625 30.496094 567.105469 30.960938 C 567.570312 31.421875 567.984375 31.929688 568.351562 32.472656 C 568.714844 33.019531 569.023438 33.59375 569.273438 34.203125 C 569.527344 34.808594 569.714844 35.433594 569.84375 36.074219 C 569.972656 36.71875 570.035156 37.367188 570.035156 38.023438 L 570.035156 58.011719 L 590.035156 58.011719 C 590.695312 58.011719 591.34375 58.074219 591.988281 58.203125 C 592.632812 58.332031 593.257812 58.519531 593.863281 58.769531 C 594.46875 59.023438 595.046875 59.328125 595.59375 59.695312 C 596.140625 60.058594 596.644531 60.472656 597.109375 60.9375 C 597.574219 61.402344 597.988281 61.90625 598.351562 62.449219 C 598.714844 62.996094 599.023438 63.574219 599.277344 64.179688 C 599.527344 64.785156 599.71875 65.410156 599.84375 66.054688 C 599.972656 66.695312 600.039062 67.347656 600.039062 68.003906 Z M 600.039062 68.003906 " fill-opacity="1" fill-rule="nonzero"/><g clip-path="url(#9930a570d7)"><path fill="#008036" d="M 0 447.714844 L 180.011719 447.714844 L 180.011719 557.632812 L 10 557.632812 C 9.34375 557.632812 8.695312 557.570312 8.050781 557.441406 C 7.40625 557.3125 6.78125 557.125 6.171875 556.875 C 5.566406 556.621094 4.992188 556.3125 4.445312 555.949219 C 3.898438 555.585938 3.394531 555.171875 2.929688 554.707031 C 2.464844 554.242188 2.050781 553.738281 1.683594 553.191406 C 1.320312 552.648438 1.011719 552.070312 0.761719 551.464844 C 0.511719 550.859375 0.320312 550.234375 0.191406 549.589844 C 0.0625 548.945312 0 548.296875 0 547.640625 Z M 0 447.714844 " fill-opacity="1" fill-rule="nonzero"/></g><path fill="#008036" d="M 0 317.8125 L 390.023438 317.8125 L 390.023438 427.730469 L 0 427.730469 Z M 0 317.8125 " fill-opacity="1" fill-rule="nonzero"/><path fill="#008036" d="M 410.027344 317.8125 L 600.039062 317.8125 L 600.039062 427.730469 L 410.027344 427.730469 Z M 410.027344 317.8125 " fill-opacity="1" fill-rule="nonzero"/><path fill="#008036" d="M 200.011719 187.914062 L 600.039062 187.914062 L 600.039062 297.828125 L 200.011719 297.828125 Z M 200.011719 187.914062 " fill-opacity="1" fill-rule="nonzero"/><path fill="#008036" d="M 170.011719 187.914062 L 150.007812 187.914062 L 150.007812 167.925781 C 150.007812 167.269531 149.945312 166.621094 149.816406 165.976562 C 149.6875 165.335938 149.5 164.710938 149.25 164.101562 C 148.996094 163.496094 148.6875 162.921875 148.324219 162.375 C 147.960938 161.832031 147.542969 161.324219 147.082031 160.863281 C 146.617188 160.398438 146.109375 159.984375 145.566406 159.617188 C 145.019531 159.253906 144.441406 158.945312 143.835938 158.695312 C 143.230469 158.445312 142.605469 158.253906 141.960938 158.125 C 141.316406 158 140.664062 157.933594 140.007812 157.933594 L 120.007812 157.933594 C 119.351562 157.933594 118.699219 158 118.054688 158.125 C 117.414062 158.253906 116.785156 158.445312 116.179688 158.695312 C 115.574219 158.945312 114.996094 159.253906 114.453125 159.617188 C 113.90625 159.984375 113.398438 160.398438 112.9375 160.863281 C 112.472656 161.324219 112.058594 161.832031 111.691406 162.375 C 111.328125 162.921875 111.019531 163.496094 110.769531 164.101562 C 110.515625 164.710938 110.328125 165.335938 110.199219 165.976562 C 110.070312 166.621094 110.007812 167.269531 110.007812 167.925781 L 110.007812 187.914062 L 70.003906 187.914062 L 70.003906 167.925781 C 70.003906 167.269531 69.941406 166.621094 69.8125 165.976562 C 69.683594 165.335938 69.496094 164.710938 69.242188 164.101562 C 68.992188 163.496094 68.683594 162.921875 68.320312 162.375 C 67.953125 161.832031 67.539062 161.324219 67.074219 160.863281 C 66.609375 160.398438 66.105469 159.984375 65.558594 159.617188 C 65.015625 159.253906 64.4375 158.945312 63.832031 158.695312 C 63.222656 158.445312 62.597656 158.253906 61.953125 158.125 C 61.3125 158 60.660156 157.933594 60.003906 157.933594 L 40.003906 157.933594 C 39.347656 157.933594 38.695312 158 38.050781 158.125 C 37.40625 158.253906 36.78125 158.445312 36.175781 158.695312 C 35.570312 158.945312 34.992188 159.253906 34.445312 159.617188 C 33.902344 159.984375 33.394531 160.398438 32.929688 160.863281 C 32.464844 161.324219 32.050781 161.832031 31.6875 162.375 C 31.324219 162.921875 31.015625 163.496094 30.761719 164.101562 C 30.511719 164.710938 30.320312 165.335938 30.195312 165.976562 C 30.066406 166.621094 30 167.269531 30 167.925781 L 30 187.914062 L 10 187.914062 C 9.34375 187.914062 8.695312 187.976562 8.050781 188.105469 C 7.40625 188.230469 6.78125 188.421875 6.171875 188.671875 C 5.566406 188.925781 4.992188 189.230469 4.445312 189.597656 C 3.898438 189.960938 3.394531 190.375 2.929688 190.839844 C 2.464844 191.304688 2.050781 191.808594 1.683594 192.351562 C 1.320312 192.898438 1.011719 193.476562 0.761719 194.082031 C 0.511719 194.6875 0.320312 195.3125 0.191406 195.957031 C 0.0625 196.597656 0 197.25 0 197.90625 L 0 297.828125 L 180.011719 297.828125 L 180.011719 197.90625 C 180.011719 197.25 179.945312 196.597656 179.820312 195.957031 C 179.691406 195.3125 179.5 194.6875 179.25 194.082031 C 179 193.476562 178.691406 192.898438 178.324219 192.351562 C 177.960938 191.808594 177.546875 191.304688 177.082031 190.839844 C 176.617188 190.375 176.113281 189.960938 175.566406 189.597656 C 175.019531 189.230469 174.445312 188.925781 173.835938 188.671875 C 173.230469 188.421875 172.605469 188.230469 171.960938 188.105469 C 171.316406 187.976562 170.667969 187.914062 170.011719 187.914062 Z M 170.011719 187.914062 " fill-opacity="1" fill-rule="nonzero"/><g clip-path="url(#651e101a21)"><path fill="#008036" d="M 200.011719 447.714844 L 200.011719 557.632812 L 590.035156 557.632812 C 590.695312 557.632812 591.34375 557.570312 591.988281 557.441406 C 592.632812 557.3125 593.257812 557.125 593.863281 556.875 C 594.46875 556.621094 595.046875 556.3125 595.59375 555.949219 C 596.140625 555.585938 596.644531 555.171875 597.109375 554.707031 C 597.574219 554.242188 597.988281 553.738281 598.351562 553.191406 C 598.714844 552.648438 599.023438 552.070312 599.277344 551.464844 C 599.527344 550.859375 599.71875 550.234375 599.84375 549.589844 C 599.972656 548.945312 600.039062 548.296875 600.039062 547.640625 L 600.039062 447.714844 Z M 200.011719 447.714844 " fill-opacity="1" fill-rule="nonzero"/></g><g clip-path="url(#5419aee47c)"><path stroke-linecap="round" transform="matrix(0.000000000000000015, -0.246009, 0.243928, 0.000000000000000015, -2.944683, 557.332076)" fill="none" stroke-linejoin="miter" d="M 1269.201557 35.99684 C 1269.201557 35.99684 1655.700465 342.504353 1247.892592 819.592746 C 1243.398972 824.893373 1239.000624 830.097915 1234.697547 835.302457 " stroke="#409652" stroke-width="33" stroke-opacity="1" stroke-miterlimit="10"/></g><g clip-path="url(#1dfe6822d6)"><path stroke-linecap="round" transform="matrix(0.000000000000000015, -0.246009, 0.243928, 0.000000000000000015, -2.944683, 557.332076)" fill="none" stroke-linejoin="miter" d="M 1277.204329 838.200987 C 1609.097026 1244.507603 1379.906557 1452.096783 1267.502556 1563.602103 " stroke="#70ed84" stroke-width="33" stroke-opacity="1" stroke-miterlimit="10"/></g><g clip-path="url(#62e11347d1)"><path stroke-linecap="round" transform="matrix(0.000000000000000015, -0.246009, 0.243928, 0.000000000000000015, -2.944683, 557.332076)" fill="none" stroke-linejoin="miter" d="M 1206.497306 1538.203936 C 1234.300584 1566.292451 1259.293365 1589.400619 1274.504981 1608.601377 C 1354.500934 1709.905794 1623.705259 2032.395256 1277.204329 2453.498786 " stroke="#409652" stroke-width="33" stroke-opacity="1" stroke-miterlimit="10"/></g><g clip-path="url(#a9285efad4)"><path stroke-linecap="round" transform="matrix(0.000000000000000015, -0.246009, 0.243928, 0.000000000000000015, -2.944683, 557.332076)" fill="none" stroke-linejoin="miter" d="M 1293.193992 70.699127 L 1169.198677 101.894354 " stroke="#0083cc" stroke-width="21" stroke-opacity="1" stroke-miterlimit="10"/></g><g clip-path="url(#ff27ab0668)"><path stroke-linecap="round" transform="matrix(0.000000000000000015, -0.246009, 0.243928, 0.000000000000000015, -2.944683, 557.332076)" fill="none" stroke-linejoin="miter" d="M 1420.603188 321.205764 L 1072.704948 339.797991 " stroke="#0083cc" stroke-width="21" stroke-opacity="1" stroke-miterlimit="10"/></g><path stroke-linecap="round" transform="matrix(0.000000000000000015, -0.246009, 0.243928, 0.000000000000000015, -2.944683, 557.332076)" fill="none" stroke-linejoin="miter" d="M 1420.603188 411.79683 L 1072.704948 411.79683 " stroke="#0083cc" stroke-width="21" stroke-opacity="1" stroke-miterlimit="10"/><g clip-path="url(#fabb8d80c0)"><path stroke-linecap="round" transform="matrix(0.000000000000000015, -0.246009, 0.243928, 0.000000000000000015, -2.944683, 557.332076)" fill="none" stroke-linejoin="miter" d="M 1353.103625 654.392563 L 1150.604937 635.704252 " stroke="#0083cc" stroke-width="21" stroke-opacity="1" stroke-miterlimit="10"/></g><g clip-path="url(#c947ba2a6e)"><path stroke-linecap="round" transform="matrix(0.000000000000000015, -0.246009, 0.243928, 0.000000000000000015, -2.944683, 557.332076)" fill="none" stroke-linejoin="miter" d="M 1353.103625 966.200703 L 1150.604937 984.905028 " stroke="#0083cc" stroke-width="21" stroke-opacity="1" stroke-miterlimit="10"/></g><g clip-path="url(#0d82515296)"><path stroke-linecap="round" transform="matrix(0.000000000000000015, -0.246009, 0.243928, 0.000000000000000015, -2.944683, 557.332076)" fill="none" stroke-linejoin="miter" d="M 1397.49995 1054.197505 L 1096.50684 1050.402192 " stroke="#0083cc" stroke-width="21" stroke-opacity="1" stroke-miterlimit="10"/></g><g clip-path="url(#ebfebbc73e)"><path stroke-linecap="round" transform="matrix(0.000000000000000015, -0.246009, 0.243928, 0.000000000000000015, -2.944683, 557.332076)" fill="none" stroke-linejoin="miter" d="M 1431.305306 1142.098223 L 1096.50684 1128.806622 " stroke="#0083cc" stroke-width="21" stroke-opacity="1" stroke-miterlimit="10"/></g><g clip-path="url(#b171162d0b)"><path stroke-linecap="round" transform="matrix(0.000000000000000015, -0.246009, 0.243928, 0.000000000000000015, -2.944683, 557.332076)" fill="none" stroke-linejoin="miter" d="M 1385.305251 1782.401066 L 1149.699862 1762.495693 " stroke="#0083cc" stroke-width="21" stroke-opacity="1" stroke-miterlimit="10"/></g><g clip-path="url(#6cb36181b4)"><path stroke-linecap="round" transform="matrix(0.000000000000000015, -0.246009, 0.243928, 0.000000000000000015, -2.944683, 557.332076)" fill="none" stroke-linejoin="miter" d="M 1433.194849 1947.104816 L 1096.50684 1925.806227 " stroke="#0083cc" stroke-width="21" stroke-opacity="1" stroke-miterlimit="10"/></g><g clip-path="url(#5f65a358fa)"><path stroke-linecap="round" transform="matrix(0.000000000000000015, -0.246009, 0.243928, 0.000000000000000015, -2.944683, 557.332076)" fill="none" stroke-linejoin="miter" d="M 1434.099925 2163.00525 L 1113.195158 2205.602428 " stroke="#7700cc" stroke-width="21" stroke-opacity="1" stroke-miterlimit="10"/></g><g clip-path="url(#8c7e6feac8)"><path stroke-linecap="round" transform="matrix(0.000000000000000015, -0.246009, 0.243928, 0.000000000000000015, -2.944683, 557.332076)" fill="none" stroke-linejoin="miter" d="M 1131.900048 188.001506 L 1352.19855 145.29223 " stroke="#7700cc" stroke-width="21" stroke-opacity="1" stroke-miterlimit="10"/></g><g clip-path="url(#7fddca539b)"><path stroke-linecap="round" transform="matrix(0.000000000000000015, -0.246009, 0.243928, 0.000000000000000015, -2.944683, 557.332076)" fill="none" stroke-linejoin="miter" d="M 1113.195158 262.59461 L 1396.706024 235.89931 " stroke="#7700cc" stroke-width="21" stroke-opacity="1" stroke-miterlimit="10"/></g><g clip-path="url(#774808d5aa)"><path stroke-linecap="round" transform="matrix(0.000000000000000015, -0.246009, 0.243928, 0.000000000000000015, -2.944683, 557.332076)" fill="none" stroke-linejoin="miter" d="M 1096.50684 486.502031 L 1420.603188 489.096296 " stroke="#7700cc" stroke-width="21" stroke-opacity="1" stroke-miterlimit="10"/></g><g clip-path="url(#e66ce69f6c)"><path stroke-linecap="round" transform="matrix(0.000000000000000015, -0.246009, 0.243928, 0.000000000000000015, -2.944683, 557.332076)" fill="none" stroke-linejoin="miter" d="M 1113.195158 550.397798 L 1396.706024 574.402749 " stroke="#7700cc" stroke-width="21" stroke-opacity="1" stroke-miterlimit="10"/></g><path stroke-linecap="round" transform="matrix(0.000000000000000015, -0.246009, 0.243928, 0.000000000000000015, -2.944683, 557.332076)" fill="none" stroke-linejoin="miter" d="M 1206.497306 891.607599 L 1293.606833 886.306973 " stroke="#7700cc" stroke-width="21" stroke-opacity="1" stroke-miterlimit="10"/><g clip-path="url(#a680832ec4)"><path stroke-linecap="round" transform="matrix(0.000000000000000015, -0.246009, 0.243928, 0.000000000000000015, -2.944683, 557.332076)" fill="none" stroke-linejoin="miter" d="M 1072.704948 1221.095169 L 1434.798579 1204.392592 " stroke="#7700cc" stroke-width="21" stroke-opacity="1" stroke-miterlimit="10"/></g><g clip-path="url(#5f161f6ab5)"><path stroke-linecap="round" transform="matrix(0.000000000000000015, -0.246009, 0.243928, 0.000000000000000015, -2.944683, 557.332076)" fill="none" stroke-linejoin="miter" d="M 1072.704948 1294.102889 L 1427.796155 1291.396527 " stroke="#7700cc" stroke-width="21" stroke-opacity="1" stroke-miterlimit="10"/></g><g clip-path="url(#542a2d8c5f)"><path stroke-linecap="round" transform="matrix(0.000000000000000015, -0.246009, 0.243928, 0.000000000000000015, -2.944683, 557.332076)" fill="none" stroke-linejoin="miter" d="M 1113.195158 1395.407306 L 1410.599724 1376.702981 " stroke="#7700cc" stroke-width="21" stroke-opacity="1" stroke-miterlimit="10"/></g><g clip-path="url(#980dcc3074)"><path stroke-linecap="round" transform="matrix(0.000000000000000015, -0.246009, 0.243928, 0.000000000000000015, -2.944683, 557.332076)" fill="none" stroke-linejoin="miter" d="M 1129.295971 1451.296084 L 1358.597591 1448.70182 " stroke="#7700cc" stroke-width="21" stroke-opacity="1" stroke-miterlimit="10"/></g><path stroke-linecap="round" transform="matrix(0.000000000000000015, -0.246009, 0.243928, 0.000000000000000015, -2.944683, 557.332076)" fill="none" stroke-linejoin="miter" d="M 1192.000223 1516.697165 L 1312.994499 1508.706191 " stroke="#7700cc" stroke-width="21" stroke-opacity="1" stroke-miterlimit="10"/><g clip-path="url(#228b77c72d)"><path stroke-linecap="round" transform="matrix(0.000000000000000015, -0.246009, 0.243928, 0.000000000000000015, -2.944683, 557.332076)" fill="none" stroke-linejoin="miter" d="M 1340.797777 1699.192443 L 1188.602221 1691.201469 " stroke="#7700cc" stroke-width="21" stroke-opacity="1" stroke-miterlimit="10"/></g><g clip-path="url(#2fb7fa2beb)"><path stroke-linecap="round" transform="matrix(0.000000000000000015, -0.246009, 0.243928, 0.000000000000000015, -2.944683, 557.332076)" fill="none" stroke-linejoin="miter" d="M 1072.704948 2024.404281 L 1449.406812 2016.093028 " stroke="#7700cc" stroke-width="21" stroke-opacity="1" stroke-miterlimit="10"/></g><g clip-path="url(#f79ea643f9)"><path stroke-linecap="round" transform="matrix(0.000000000000000015, -0.246009, 0.243928, 0.000000000000000015, -2.944683, 557.332076)" fill="none" stroke-linejoin="miter" d="M 1072.704948 2120.295974 L 1442.007424 2096.307037 " stroke="#7700cc" stroke-width="21" stroke-opacity="1" stroke-miterlimit="10"/></g><g clip-path="url(#fc4b367307)"><path stroke-linecap="round" transform="matrix(0.000000000000000015, -0.246009, 0.243928, 0.000000000000000015, -2.944683, 557.332076)" fill="none" stroke-linejoin="miter" d="M 1150.604937 2288.202519 L 1403.80372 2237.598353 " stroke="#7700cc" stroke-width="21" stroke-opacity="1" stroke-miterlimit="10"/></g><g clip-path="url(#10c77cda28)"><path stroke-linecap="round" transform="matrix(0.000000000000000015, -0.246009, 0.243928, 0.000000000000000015, -2.944683, 557.332076)" fill="none" stroke-linejoin="miter" d="M 1181.298104 2386.992741 L 1379.795407 2300.501253 " stroke="#7700cc" stroke-width="21" stroke-opacity="1" stroke-miterlimit="10"/></g><g clip-path="url(#1c8806c974)"><path stroke-linecap="round" transform="matrix(0.000000000000000015, -0.246009, 0.243928, 0.000000000000000015, -2.944683, 557.332076)" fill="none" stroke-linejoin="miter" d="M 1267.502556 1563.698186 C 1252.592632 1578.495101 1239.699279 1591.594534 1230.505619 1603.300751 C 1150.493787 1704.605167 881.305341 2027.09463 1227.806272 2448.19816 " stroke="#70ed84" stroke-width="33" stroke-opacity="1" stroke-miterlimit="10"/></g><g clip-path="url(#61afa76be3)"><path stroke-linecap="round" transform="matrix(0.000000000000000015, -0.246009, 0.243928, 0.000000000000000015, -2.944683, 557.332076)" fill="none" stroke-linejoin="miter" d="M 1418.793037 1874.001013 L 1095.506494 1852.60634 " stroke="#0083cc" stroke-width="21" stroke-opacity="1" stroke-miterlimit="10"/></g><g clip-path="url(#73c22a32aa)"><path stroke-linecap="round" transform="matrix(0.000000000000000015, -0.246009, 0.243928, 0.000000000000000015, -2.944683, 557.332076)" fill="none" stroke-linejoin="miter" d="M 1234.602276 835.302457 C 921.906701 1212.095315 1089.202724 1419.604424 1206.497306 1538.203936 " stroke="#409652" stroke-width="33" stroke-opacity="1" stroke-miterlimit="10"/></g><g clip-path="url(#4c72b67d7c)"><path stroke-linecap="round" transform="matrix(0.000000000000000015, -0.246009, 0.243928, 0.000000000000000015, -2.944683, 557.332076)" fill="none" stroke-linejoin="miter" d="M 1235.793164 30.696213 C 1235.793164 30.696213 849.294257 337.203727 1257.10213 814.29212 C 1263.993405 822.299108 1270.598867 830.306097 1277.093179 838.200987 " stroke="#70ed84" stroke-width="33" stroke-opacity="1" stroke-miterlimit="10"/></g><g clip-path="url(#517aac5f7b)"><path stroke-linecap="round" transform="matrix(0.000000000000000015, -0.246009, 0.243928, 0.000000000000000015, -2.944683, 680.545839)" fill="none" stroke-linejoin="miter" d="M 1269.197163 35.99684 C 1269.197163 35.99684 1655.696071 342.504353 1247.904076 819.592746 C 1243.394578 824.893373 1238.99623 830.097915 1234.693153 835.302457 " stroke="#409652" stroke-width="33" stroke-opacity="1" stroke-miterlimit="10"/></g><g clip-path="url(#4f4679b6d6)"><path stroke-linecap="round" transform="matrix(0.000000000000000015, -0.246009, 0.243928, 0.000000000000000015, -2.944683, 680.545839)" fill="none" stroke-linejoin="miter" d="M 1277.199934 838.200987 C 1609.092632 1244.507603 1379.902162 1452.096783 1267.498162 1563.602103 " stroke="#70ed84" stroke-width="33" stroke-opacity="1" stroke-miterlimit="10"/></g><g clip-path="url(#acf6d04134)"><path stroke-linecap="round" transform="matrix(0.000000000000000015, -0.246009, 0.243928, 0.000000000000000015, -2.944683, 680.545839)" fill="none" stroke-linejoin="miter" d="M 1206.492912 1538.203936 C 1234.29619 1566.292451 1259.304849 1589.400619 1274.500587 1608.601377 C 1354.49654 1709.905794 1623.700865 2032.395256 1277.199934 2453.498786 " stroke="#409652" stroke-width="33" stroke-opacity="1" stroke-miterlimit="10"/></g><g clip-path="url(#25c5d01593)"><path stroke-linecap="round" transform="matrix(0.000000000000000015, -0.246009, 0.243928, 0.000000000000000015, -2.944683, 680.545839)" fill="none" stroke-linejoin="miter" d="M 1293.205476 70.699127 L 1169.194283 101.894354 " stroke="#0083cc" stroke-width="21" stroke-opacity="1" stroke-miterlimit="10"/></g><g clip-path="url(#ec6e3ccc60)"><path stroke-linecap="round" transform="matrix(0.000000000000000015, -0.246009, 0.243928, 0.000000000000000015, -2.944683, 680.545839)" fill="none" stroke-linejoin="miter" d="M 1420.598794 321.205764 L 1072.700554 339.797991 " stroke="#0083cc" stroke-width="21" stroke-opacity="1" stroke-miterlimit="10"/></g><path stroke-linecap="round" transform="matrix(0.000000000000000015, -0.246009, 0.243928, 0.000000000000000015, -2.944683, 680.545839)" fill="none" stroke-linejoin="miter" d="M 1420.598794 411.79683 L 1072.700554 411.79683 " stroke="#0083cc" stroke-width="21" stroke-opacity="1" stroke-miterlimit="10"/><g clip-path="url(#fdf4f3a9de)"><path stroke-linecap="round" transform="matrix(0.000000000000000015, -0.246009, 0.243928, 0.000000000000000015, -2.944683, 680.545839)" fill="none" stroke-linejoin="miter" d="M 1353.099231 654.392563 L 1150.600543 635.704252 " stroke="#0083cc" stroke-width="21" stroke-opacity="1" stroke-miterlimit="10"/></g><g clip-path="url(#e98abcb553)"><path stroke-linecap="round" transform="matrix(0.000000000000000015, -0.246009, 0.243928, 0.000000000000000015, -2.944683, 680.545839)" fill="none" stroke-linejoin="miter" d="M 1353.099231 966.200703 L 1150.600543 984.905028 " stroke="#0083cc" stroke-width="21" stroke-opacity="1" stroke-miterlimit="10"/></g><g clip-path="url(#cd705ec5bb)"><path stroke-linecap="round" transform="matrix(0.000000000000000015, -0.246009, 0.243928, 0.000000000000000015, -2.944683, 680.545839)" fill="none" stroke-linejoin="miter" d="M 1397.495556 1054.197505 L 1096.502446 1050.402192 " stroke="#0083cc" stroke-width="21" stroke-opacity="1" stroke-miterlimit="10"/></g><g clip-path="url(#e5e552b35c)"><path stroke-linecap="round" transform="matrix(0.000000000000000015, -0.246009, 0.243928, 0.000000000000000015, -2.944683, 680.545839)" fill="none" stroke-linejoin="miter" d="M 1431.300912 1142.098223 L 1096.502446 1128.806622 " stroke="#0083cc" stroke-width="21" stroke-opacity="1" stroke-miterlimit="10"/></g><g clip-path="url(#4e90db9ce1)"><path stroke-linecap="round" transform="matrix(0.000000000000000015, -0.246009, 0.243928, 0.000000000000000015, -2.944683, 680.545839)" fill="none" stroke-linejoin="miter" d="M 1385.300857 1782.401066 L 1149.695468 1762.495693 " stroke="#0083cc" stroke-width="21" stroke-opacity="1" stroke-miterlimit="10"/></g><g clip-path="url(#24345282c7)"><path stroke-linecap="round" transform="matrix(0.000000000000000015, -0.246009, 0.243928, 0.000000000000000015, -2.944683, 680.545839)" fill="none" stroke-linejoin="miter" d="M 1433.206334 1947.104816 L 1096.502446 1925.806227 " stroke="#0083cc" stroke-width="21" stroke-opacity="1" stroke-miterlimit="10"/></g><g clip-path="url(#ef7e17f07b)"><path stroke-linecap="round" transform="matrix(0.000000000000000015, -0.246009, 0.243928, 0.000000000000000015, -2.944683, 680.545839)" fill="none" stroke-linejoin="miter" d="M 1434.09553 2163.00525 L 1113.206643 2205.602428 " stroke="#7700cc" stroke-width="21" stroke-opacity="1" stroke-miterlimit="10"/></g><g clip-path="url(#b69a3062b9)"><path stroke-linecap="round" transform="matrix(0.000000000000000015, -0.246009, 0.243928, 0.000000000000000015, -2.944683, 680.545839)" fill="none" stroke-linejoin="miter" d="M 1131.895653 188.001506 L 1352.194156 145.29223 " stroke="#7700cc" stroke-width="21" stroke-opacity="1" stroke-miterlimit="10"/></g><g clip-path="url(#8281410556)"><path stroke-linecap="round" transform="matrix(0.000000000000000015, -0.246009, 0.243928, 0.000000000000000015, -2.944683, 680.545839)" fill="none" stroke-linejoin="miter" d="M 1113.206643 262.59461 L 1396.70163 235.89931 " stroke="#7700cc" stroke-width="21" stroke-opacity="1" stroke-miterlimit="10"/></g><g clip-path="url(#5f0d759433)"><path stroke-linecap="round" transform="matrix(0.000000000000000015, -0.246009, 0.243928, 0.000000000000000015, -2.944683, 680.545839)" fill="none" stroke-linejoin="miter" d="M 1096.502446 486.502031 L 1420.598794 489.096296 " stroke="#7700cc" stroke-width="21" stroke-opacity="1" stroke-miterlimit="10"/></g><g clip-path="url(#34ab48faff)"><path stroke-linecap="round" transform="matrix(0.000000000000000015, -0.246009, 0.243928, 0.000000000000000015, -2.944683, 680.545839)" fill="none" stroke-linejoin="miter" d="M 1113.206643 550.397798 L 1396.70163 574.402749 " stroke="#7700cc" stroke-width="21" stroke-opacity="1" stroke-miterlimit="10"/></g><path stroke-linecap="round" transform="matrix(0.000000000000000015, -0.246009, 0.243928, 0.000000000000000015, -2.944683, 680.545839)" fill="none" stroke-linejoin="miter" d="M 1206.492912 891.607599 L 1293.602439 886.306973 " stroke="#7700cc" stroke-width="21" stroke-opacity="1" stroke-miterlimit="10"/><g clip-path="url(#90f1cf6693)"><path stroke-linecap="round" transform="matrix(0.000000000000000015, -0.246009, 0.243928, 0.000000000000000015, -2.944683, 680.545839)" fill="none" stroke-linejoin="miter" d="M 1072.700554 1221.095169 L 1434.794185 1204.392592 " stroke="#7700cc" stroke-width="21" stroke-opacity="1" stroke-miterlimit="10"/></g><g clip-path="url(#e648955ffe)"><path stroke-linecap="round" transform="matrix(0.000000000000000015, -0.246009, 0.243928, 0.000000000000000015, -2.944683, 680.545839)" fill="none" stroke-linejoin="miter" d="M 1072.700554 1294.102889 L 1427.807639 1291.396527 " stroke="#7700cc" stroke-width="21" stroke-opacity="1" stroke-miterlimit="10"/></g><g clip-path="url(#ad1bff5bf6)"><path stroke-linecap="round" transform="matrix(0.000000000000000015, -0.246009, 0.243928, 0.000000000000000015, -2.944683, 680.545839)" fill="none" stroke-linejoin="miter" d="M 1113.206643 1395.407306 L 1410.59533 1376.702981 " stroke="#7700cc" stroke-width="21" stroke-opacity="1" stroke-miterlimit="10"/></g><g clip-path="url(#ea617f4840)"><path stroke-linecap="round" transform="matrix(0.000000000000000015, -0.246009, 0.243928, 0.000000000000000015, -2.944683, 680.545839)" fill="none" stroke-linejoin="miter" d="M 1129.307456 1451.296084 L 1358.593197 1448.70182 " stroke="#7700cc" stroke-width="21" stroke-opacity="1" stroke-miterlimit="10"/></g><path stroke-linecap="round" transform="matrix(0.000000000000000015, -0.246009, 0.243928, 0.000000000000000015, -2.944683, 680.545839)" fill="none" stroke-linejoin="miter" d="M 1191.995829 1516.697165 L 1313.005983 1508.706191 " stroke="#7700cc" stroke-width="21" stroke-opacity="1" stroke-miterlimit="10"/><g clip-path="url(#594ba25738)"><path stroke-linecap="round" transform="matrix(0.000000000000000015, -0.246009, 0.243928, 0.000000000000000015, -2.944683, 680.545839)" fill="none" stroke-linejoin="miter" d="M 1340.793383 1699.192443 L 1188.597827 1691.201469 " stroke="#7700cc" stroke-width="21" stroke-opacity="1" stroke-miterlimit="10"/></g><g clip-path="url(#3d4fef9116)"><path stroke-linecap="round" transform="matrix(0.000000000000000015, -0.246009, 0.243928, 0.000000000000000015, -2.944683, 680.545839)" fill="none" stroke-linejoin="miter" d="M 1072.700554 2024.404281 L 1449.402418 2016.093028 " stroke="#7700cc" stroke-width="21" stroke-opacity="1" stroke-miterlimit="10"/></g><g clip-path="url(#6066ff5047)"><path stroke-linecap="round" transform="matrix(0.000000000000000015, -0.246009, 0.243928, 0.000000000000000015, -2.944683, 680.545839)" fill="none" stroke-linejoin="miter" d="M 1072.700554 2120.295974 L 1442.00303 2096.307037 " stroke="#7700cc" stroke-width="21" stroke-opacity="1" stroke-miterlimit="10"/></g><g clip-path="url(#ce666f7f2a)"><path stroke-linecap="round" transform="matrix(0.000000000000000015, -0.246009, 0.243928, 0.000000000000000015, -2.944683, 680.545839)" fill="none" stroke-linejoin="miter" d="M 1150.600543 2288.202519 L 1403.799326 2237.598353 " stroke="#7700cc" stroke-width="21" stroke-opacity="1" stroke-miterlimit="10"/></g><g clip-path="url(#fb8cb52cb1)"><path stroke-linecap="round" transform="matrix(0.000000000000000015, -0.246009, 0.243928, 0.000000000000000015, -2.944683, 680.545839)" fill="none" stroke-linejoin="miter" d="M 1181.29371 2386.992741 L 1379.806891 2300.501253 " stroke="#7700cc" stroke-width="21" stroke-opacity="1" stroke-miterlimit="10"/></g><g clip-path="url(#0f483fbad3)"><path stroke-linecap="round" transform="matrix(0.000000000000000015, -0.246009, 0.243928, 0.000000000000000015, -2.944683, 680.545839)" fill="none" stroke-linejoin="miter" d="M 1267.498162 1563.698186 C 1252.604116 1578.495101 1239.694884 1591.594534 1230.501225 1603.300751 C 1150.505272 1704.605167 881.300947 2027.09463 1227.801878 2448.19816 " stroke="#70ed84" stroke-width="33" stroke-opacity="1" stroke-miterlimit="10"/></g><g clip-path="url(#0154c5c5c2)"><path stroke-linecap="round" transform="matrix(0.000000000000000015, -0.246009, 0.243928, 0.000000000000000015, -2.944683, 680.545839)" fill="none" stroke-linejoin="miter" d="M 1418.804521 1874.001013 L 1095.5021 1852.60634 " stroke="#0083cc" stroke-width="21" stroke-opacity="1" stroke-miterlimit="10"/></g><g clip-path="url(#03fd085f41)"><path stroke-linecap="round" transform="matrix(0.000000000000000015, -0.246009, 0.243928, 0.000000000000000015, -2.944683, 680.545839)" fill="none" stroke-linejoin="miter" d="M 1234.597881 835.302457 C 921.902307 1212.095315 1089.19833 1419.604424 1206.492912 1538.203936 " stroke="#409652" stroke-width="33" stroke-opacity="1" stroke-miterlimit="10"/></g><g clip-path="url(#2e06067db7)"><path stroke-linecap="round" transform="matrix(0.000000000000000015, -0.246009, 0.243928, 0.000000000000000015, -2.944683, 680.545839)" fill="none" stroke-linejoin="miter" d="M 1235.804649 30.696213 C 1235.804649 30.696213 849.305741 337.203727 1257.097736 814.29212 C 1264.004889 822.299108 1270.594473 830.306097 1277.104663 838.200987 " stroke="#70ed84" stroke-width="33" stroke-opacity="1" stroke-miterlimit="10"/></g><g clip-path="url(#9168aff00c)"><path stroke-linecap="round" transform="matrix(0.000000000000000015, -0.246009, 0.243928, 0.000000000000000015, -2.944683, 815.114577)" fill="none" stroke-linejoin="miter" d="M 1269.206643 35.99684 C 1269.206643 35.99684 1655.70555 342.504353 1247.897677 819.592746 C 1243.404058 824.893373 1239.005709 830.097915 1234.702632 835.302457 " stroke="#409652" stroke-width="33" stroke-opacity="1" stroke-miterlimit="10"/></g><g clip-path="url(#06bcaae314)"><path stroke-linecap="round" transform="matrix(0.000000000000000015, -0.246009, 0.243928, 0.000000000000000015, -2.944683, 815.114577)" fill="none" stroke-linejoin="miter" d="M 1277.193535 838.200987 C 1609.102112 1244.507603 1379.895763 1452.096783 1267.507642 1563.602103 " stroke="#70ed84" stroke-width="33" stroke-opacity="1" stroke-miterlimit="10"/></g><g clip-path="url(#f9ca76f1b5)"><path stroke-linecap="round" transform="matrix(0.000000000000000015, -0.246009, 0.243928, 0.000000000000000015, -2.944683, 815.114577)" fill="none" stroke-linejoin="miter" d="M 1206.502391 1538.203936 C 1234.305669 1566.292451 1259.29845 1589.400619 1274.494188 1608.601377 C 1354.506019 1709.905794 1623.694466 2032.395256 1277.193535 2453.498786 " stroke="#409652" stroke-width="33" stroke-opacity="1" stroke-miterlimit="10"/></g><g clip-path="url(#f4c984de96)"><path stroke-linecap="round" transform="matrix(0.000000000000000015, -0.246009, 0.243928, 0.000000000000000015, -2.944683, 815.114577)" fill="none" stroke-linejoin="miter" d="M 1293.199077 70.699127 L 1169.203762 101.894354 " stroke="#0083cc" stroke-width="21" stroke-opacity="1" stroke-miterlimit="10"/></g><g clip-path="url(#d78e30e10e)"><path stroke-linecap="round" transform="matrix(0.000000000000000015, -0.246009, 0.243928, 0.000000000000000015, -2.944683, 815.114577)" fill="none" stroke-linejoin="miter" d="M 1420.592394 321.205764 L 1072.694154 339.797991 " stroke="#0083cc" stroke-width="21" stroke-opacity="1" stroke-miterlimit="10"/></g><path stroke-linecap="round" transform="matrix(0.000000000000000015, -0.246009, 0.243928, 0.000000000000000015, -2.944683, 815.114577)" fill="none" stroke-linejoin="miter" d="M 1420.592394 411.79683 L 1072.694154 411.79683 " stroke="#0083cc" stroke-width="21" stroke-opacity="1" stroke-miterlimit="10"/><g clip-path="url(#98c20df70d)"><path stroke-linecap="round" transform="matrix(0.000000000000000015, -0.246009, 0.243928, 0.000000000000000015, -2.944683, 815.114577)" fill="none" stroke-linejoin="miter" d="M 1353.092832 654.392563 L 1150.594144 635.704252 " stroke="#0083cc" stroke-width="21" stroke-opacity="1" stroke-miterlimit="10"/></g><g clip-path="url(#bda6af7e89)"><path stroke-linecap="round" transform="matrix(0.000000000000000015, -0.246009, 0.243928, 0.000000000000000015, -2.944683, 815.114577)" fill="none" stroke-linejoin="miter" d="M 1353.092832 966.200703 L 1150.594144 984.905028 " stroke="#0083cc" stroke-width="21" stroke-opacity="1" stroke-miterlimit="10"/></g><g clip-path="url(#728efb9488)"><path stroke-linecap="round" transform="matrix(0.000000000000000015, -0.246009, 0.243928, 0.000000000000000015, -2.944683, 815.114577)" fill="none" stroke-linejoin="miter" d="M 1397.505035 1054.197505 L 1096.496047 1050.402192 " stroke="#0083cc" stroke-width="21" stroke-opacity="1" stroke-miterlimit="10"/></g><g clip-path="url(#4593c2548b)"><path stroke-linecap="round" transform="matrix(0.000000000000000015, -0.246009, 0.243928, 0.000000000000000015, -2.944683, 815.114577)" fill="none" stroke-linejoin="miter" d="M 1431.294513 1142.098223 L 1096.496047 1128.806622 " stroke="#0083cc" stroke-width="21" stroke-opacity="1" stroke-miterlimit="10"/></g><g clip-path="url(#646121ec34)"><path stroke-linecap="round" transform="matrix(0.000000000000000015, -0.246009, 0.243928, 0.000000000000000015, -2.944683, 815.114577)" fill="none" stroke-linejoin="miter" d="M 1385.294458 1782.401066 L 1149.704947 1762.495693 " stroke="#0083cc" stroke-width="21" stroke-opacity="1" stroke-miterlimit="10"/></g><g clip-path="url(#65344b4ad6)"><path stroke-linecap="round" transform="matrix(0.000000000000000015, -0.246009, 0.243928, 0.000000000000000015, -2.944683, 815.114577)" fill="none" stroke-linejoin="miter" d="M 1433.199934 1947.104816 L 1096.496047 1925.806227 " stroke="#0083cc" stroke-width="21" stroke-opacity="1" stroke-miterlimit="10"/></g><g clip-path="url(#e5218cf47e)"><path stroke-linecap="round" transform="matrix(0.000000000000000015, -0.246009, 0.243928, 0.000000000000000015, -2.944683, 815.114577)" fill="none" stroke-linejoin="miter" d="M 1434.10501 2163.00525 L 1113.200243 2205.602428 " stroke="#7700cc" stroke-width="21" stroke-opacity="1" stroke-miterlimit="10"/></g><g clip-path="url(#56cd6f0768)"><path stroke-linecap="round" transform="matrix(0.000000000000000015, -0.246009, 0.243928, 0.000000000000000015, -2.944683, 815.114577)" fill="none" stroke-linejoin="miter" d="M 1131.905133 188.001506 L 1352.203635 145.29223 " stroke="#7700cc" stroke-width="21" stroke-opacity="1" stroke-miterlimit="10"/></g><g clip-path="url(#3d552f035a)"><path stroke-linecap="round" transform="matrix(0.000000000000000015, -0.246009, 0.243928, 0.000000000000000015, -2.944683, 815.114577)" fill="none" stroke-linejoin="miter" d="M 1113.200243 262.59461 L 1396.695231 235.89931 " stroke="#7700cc" stroke-width="21" stroke-opacity="1" stroke-miterlimit="10"/></g><g clip-path="url(#d0dd700836)"><path stroke-linecap="round" transform="matrix(0.000000000000000015, -0.246009, 0.243928, 0.000000000000000015, -2.944683, 815.114577)" fill="none" stroke-linejoin="miter" d="M 1096.496047 486.502031 L 1420.592394 489.096296 " stroke="#7700cc" stroke-width="21" stroke-opacity="1" stroke-miterlimit="10"/></g><g clip-path="url(#00a2b9898e)"><path stroke-linecap="round" transform="matrix(0.000000000000000015, -0.246009, 0.243928, 0.000000000000000015, -2.944683, 815.114577)" fill="none" stroke-linejoin="miter" d="M 1113.200243 550.397798 L 1396.695231 574.402749 " stroke="#7700cc" stroke-width="21" stroke-opacity="1" stroke-miterlimit="10"/></g><path stroke-linecap="round" transform="matrix(0.000000000000000015, -0.246009, 0.243928, 0.000000000000000015, -2.944683, 815.114577)" fill="none" stroke-linejoin="miter" d="M 1206.502391 891.607599 L 1293.59604 886.306973 " stroke="#7700cc" stroke-width="21" stroke-opacity="1" stroke-miterlimit="10"/><g clip-path="url(#5907dd52ad)"><path stroke-linecap="round" transform="matrix(0.000000000000000015, -0.246009, 0.243928, 0.000000000000000015, -2.944683, 815.114577)" fill="none" stroke-linejoin="miter" d="M 1072.694154 1221.095169 L 1434.803664 1204.392592 " stroke="#7700cc" stroke-width="21" stroke-opacity="1" stroke-miterlimit="10"/></g><g clip-path="url(#edac662102)"><path stroke-linecap="round" transform="matrix(0.000000000000000015, -0.246009, 0.243928, 0.000000000000000015, -2.944683, 815.114577)" fill="none" stroke-linejoin="miter" d="M 1072.694154 1294.102889 L 1427.80124 1291.396527 " stroke="#7700cc" stroke-width="21" stroke-opacity="1" stroke-miterlimit="10"/></g><g clip-path="url(#3ce666b2e6)"><path stroke-linecap="round" transform="matrix(0.000000000000000015, -0.246009, 0.243928, 0.000000000000000015, -2.944683, 815.114577)" fill="none" stroke-linejoin="miter" d="M 1113.200243 1395.407306 L 1410.604809 1376.702981 " stroke="#7700cc" stroke-width="21" stroke-opacity="1" stroke-miterlimit="10"/></g><g clip-path="url(#7db7f18ce6)"><path stroke-linecap="round" transform="matrix(0.000000000000000015, -0.246009, 0.243928, 0.000000000000000015, -2.944683, 815.114577)" fill="none" stroke-linejoin="miter" d="M 1129.301057 1451.296084 L 1358.602676 1448.70182 " stroke="#7700cc" stroke-width="21" stroke-opacity="1" stroke-miterlimit="10"/></g><path stroke-linecap="round" transform="matrix(0.000000000000000015, -0.246009, 0.243928, 0.000000000000000015, -2.944683, 815.114577)" fill="none" stroke-linejoin="miter" d="M 1192.005308 1516.697165 L 1312.999584 1508.706191 " stroke="#7700cc" stroke-width="21" stroke-opacity="1" stroke-miterlimit="10"/><g clip-path="url(#9ec803c69c)"><path stroke-linecap="round" transform="matrix(0.000000000000000015, -0.246009, 0.243928, 0.000000000000000015, -2.944683, 815.114577)" fill="none" stroke-linejoin="miter" d="M 1340.802862 1699.192443 L 1188.607306 1691.201469 " stroke="#7700cc" stroke-width="21" stroke-opacity="1" stroke-miterlimit="10"/></g><g clip-path="url(#8a3ab24033)"><path stroke-linecap="round" transform="matrix(0.000000000000000015, -0.246009, 0.243928, 0.000000000000000015, -2.944683, 815.114577)" fill="none" stroke-linejoin="miter" d="M 1072.694154 2024.404281 L 1449.396019 2016.093028 " stroke="#7700cc" stroke-width="21" stroke-opacity="1" stroke-miterlimit="10"/></g><g clip-path="url(#4e66ffd765)"><path stroke-linecap="round" transform="matrix(0.000000000000000015, -0.246009, 0.243928, 0.000000000000000015, -2.944683, 815.114577)" fill="none" stroke-linejoin="miter" d="M 1072.694154 2120.295974 L 1441.996631 2096.307037 " stroke="#7700cc" stroke-width="21" stroke-opacity="1" stroke-miterlimit="10"/></g><g clip-path="url(#82ba09d804)"><path stroke-linecap="round" transform="matrix(0.000000000000000015, -0.246009, 0.243928, 0.000000000000000015, -2.944683, 815.114577)" fill="none" stroke-linejoin="miter" d="M 1150.594144 2288.202519 L 1403.792927 2237.598353 " stroke="#7700cc" stroke-width="21" stroke-opacity="1" stroke-miterlimit="10"/></g><g clip-path="url(#88703204a7)"><path stroke-linecap="round" transform="matrix(0.000000000000000015, -0.246009, 0.243928, 0.000000000000000015, -2.944683, 815.114577)" fill="none" stroke-linejoin="miter" d="M 1181.30319 2386.992741 L 1379.800492 2300.501253 " stroke="#7700cc" stroke-width="21" stroke-opacity="1" stroke-miterlimit="10"/></g><g clip-path="url(#3b92639a4b)"><path stroke-linecap="round" transform="matrix(0.000000000000000015, -0.246009, 0.243928, 0.000000000000000015, -2.944683, 815.114577)" fill="none" stroke-linejoin="miter" d="M 1267.507642 1563.698186 C 1252.597717 1578.495101 1239.704364 1591.594534 1230.494826 1603.300751 C 1150.498873 1704.605167 881.294548 2027.09463 1227.795478 2448.19816 " stroke="#70ed84" stroke-width="33" stroke-opacity="1" stroke-miterlimit="10"/></g><g clip-path="url(#044c46261a)"><path stroke-linecap="round" transform="matrix(0.000000000000000015, -0.246009, 0.243928, 0.000000000000000015, -2.944683, 815.114577)" fill="none" stroke-linejoin="miter" d="M 1418.798122 1874.001013 L 1095.4957 1852.60634 " stroke="#0083cc" stroke-width="21" stroke-opacity="1" stroke-miterlimit="10"/></g><g clip-path="url(#59018cf5dc)"><path stroke-linecap="round" transform="matrix(0.000000000000000015, -0.246009, 0.243928, 0.000000000000000015, -2.944683, 815.114577)" fill="none" stroke-linejoin="miter" d="M 1234.607361 835.302457 C 921.895908 1212.095315 1089.207809 1419.604424 1206.502391 1538.203936 " stroke="#409652" stroke-width="33" stroke-opacity="1" stroke-miterlimit="10"/></g><g clip-path="url(#57c6d14ce5)"><path stroke-linecap="round" transform="matrix(0.000000000000000015, -0.246009, 0.243928, 0.000000000000000015, -2.944683, 815.114577)" fill="none" stroke-linejoin="miter" d="M 1235.798249 30.696213 C 1235.798249 30.696213 849.299342 337.203727 1257.107215 814.29212 C 1263.99849 822.299108 1270.603952 830.306097 1277.098264 838.200987 " stroke="#70ed84" stroke-width="33" stroke-opacity="1" stroke-miterlimit="10"/></g></svg>