<svg xmlns="http://www.w3.org/2000/svg" xmlns:xlink="http://www.w3.org/1999/xlink" width="800" zoomAndPan="magnify" viewBox="0 0 600 599.999999" height="800" preserveAspectRatio="xMidYMid meet" version="1.0"><defs><clipPath id="7ad0eb2a8e"><path d="M 23.25 7 L 576.75 7 L 576.75 600 L 23.25 600 Z M 23.25 7 " clip-rule="nonzero"/></clipPath><clipPath id="73ee202fb5"><path d="M 23.25 0 L 576.75 0 L 576.75 554 L 23.25 554 Z M 23.25 0 " clip-rule="nonzero"/></clipPath></defs><g clip-path="url(#7ad0eb2a8e)"><path fill="#000000" d="M 576.75 279.894531 L 576.75 323.054688 C 576.75 475.902344 452.953125 599.699219 300.105469 599.699219 C 147.257812 599.699219 23.25 475.902344 23.25 323.054688 L 23.25 276.945312 L 30.828125 276.945312 C 30.828125 128.308594 151.257812 7.878906 299.894531 7.878906 C 448.535156 7.878906 568.960938 128.308594 568.960938 276.945312 C 568.960938 277.789062 568.960938 278.839844 568.960938 279.683594 Z M 576.75 279.894531 L 576.75 323.054688 C 576.75 475.902344 452.953125 599.699219 300.105469 599.699219 C 147.257812 599.699219 23.25 475.902344 23.25 323.054688 L 23.25 276.945312 L 30.828125 276.945312 C 30.828125 128.308594 151.257812 7.878906 299.894531 7.878906 C 448.535156 7.878906 568.960938 128.308594 568.960938 276.945312 C 568.960938 277.789062 568.960938 278.839844 568.960938 279.683594 Z M 576.75 279.894531 " fill-opacity="1" fill-rule="nonzero"/></g><g clip-path="url(#73ee202fb5)"><path fill="#008036" d="M 268.3125 426.214844 L 418.847656 295.472656 C 430.425781 285.367188 430.425781 268.945312 418.847656 258.839844 L 268.3125 127.886719 C 256.734375 117.78125 247.261719 121.148438 247.261719 135.464844 L 247.261719 418.636719 C 247.261719 432.953125 256.734375 436.324219 268.3125 426.214844 Z M 284.734375 200.730469 C 284.734375 186.414062 294.210938 183.046875 305.789062 193.152344 L 381.371094 258.839844 C 392.953125 268.945312 392.953125 285.367188 381.371094 295.472656 L 305.789062 361.160156 C 294.210938 371.265625 284.734375 367.898438 284.734375 353.582031 Z M 299.894531 0.300781 C 147.046875 0.300781 23.25 124.097656 23.25 276.945312 C 23.25 429.796875 147.046875 553.589844 299.894531 553.589844 C 452.742188 553.589844 576.75 429.796875 576.75 276.945312 C 576.75 124.097656 452.742188 0.300781 299.894531 0.300781 Z M 476.746094 453.796875 C 429.585938 500.957031 366.632812 527.0625 299.894531 527.0625 C 233.15625 527.0625 170.414062 500.957031 123.253906 453.796875 C 75.882812 406.636719 49.988281 343.6875 49.988281 276.945312 C 49.988281 210.207031 75.882812 147.464844 123.253906 100.304688 C 170.414062 52.9375 233.15625 27.039062 299.894531 27.039062 C 366.632812 27.039062 429.375 52.9375 476.746094 100.304688 C 523.90625 147.464844 550.011719 210.417969 550.011719 277.15625 C 550.011719 343.898438 523.90625 406.636719 476.746094 453.796875 Z M 476.746094 453.796875 " fill-opacity="1" fill-rule="nonzero"/></g></svg>